# Blender v3.1.2 OBJ File: 'asset_back.blend'
# www.blender.org
mtllib banner.mtl
o Plane
v -0.829155 4.284039 0.292541
v 0.833671 4.284039 0.292541
v -0.829155 4.297899 0.157939
v 0.833671 4.297899 0.157939
v -0.829155 1.751433 0.292541
v 0.833671 1.380860 0.292541
v -0.690586 4.284039 0.292541
v -0.552017 4.284039 0.292541
v -0.413448 4.284039 0.292541
v -0.274879 4.284039 0.292541
v -0.136310 4.284039 0.292541
v 0.002258 4.284039 0.292541
v 0.140827 4.284039 0.292541
v 0.279396 4.284039 0.292541
v 0.417965 4.284039 0.292541
v 0.556534 4.284039 0.292541
v 0.695102 4.284039 0.292541
v 0.695102 4.297899 0.157939
v 0.556534 4.297899 0.157939
v 0.417965 4.297899 0.157939
v 0.279396 4.297899 0.157939
v 0.140827 4.297899 0.157939
v 0.002258 4.297899 0.157939
v -0.136311 4.297899 0.157939
v -0.274879 4.297899 0.157939
v -0.413448 4.297899 0.157939
v -0.552017 4.297899 0.157939
v -0.690586 4.297899 0.157939
v -0.690586 1.544490 0.292541
v -0.552017 1.236481 0.292541
v -0.413448 1.544490 0.292541
v -0.274879 1.717745 0.292541
v -0.136310 1.761059 0.292541
v 0.002258 1.453050 0.292541
v 0.140827 1.765871 0.292541
v 0.279396 1.939126 0.292541
v 0.417965 1.664806 0.292541
v 0.556534 1.496363 0.292541
v 0.695102 1.621492 0.292541
v -0.182428 -0.042341 0.079758
v -0.156941 4.606809 0.054271
v -0.182428 -0.042341 -0.289615
v -0.156941 4.606809 -0.264128
v 0.186945 -0.042341 0.079758
v 0.161457 4.606809 0.054271
v 0.186945 -0.042341 -0.289615
v 0.161457 4.606809 -0.264128
v -0.132669 1.507375 0.029998
v -0.109537 3.057092 0.020231
v -0.122901 3.057092 -0.230088
v -0.132669 1.507375 -0.239855
v 0.127418 3.057092 -0.230088
v 0.137185 1.507375 -0.239855
v 0.114054 3.057092 0.020231
v 0.137185 1.507375 0.029998
v -0.200524 3.989714 0.097853
v -0.200524 4.350280 0.097853
v -0.200524 3.989714 -0.307711
v -0.200524 4.350280 -0.307711
v 0.205040 3.989714 0.097853
v 0.205040 4.350280 0.097853
v 0.205040 3.989714 -0.307711
v 0.205040 4.350280 -0.307711
v -0.182737 4.169997 0.080067
v -0.182737 4.169997 -0.289924
v 0.187254 4.169997 -0.289924
v 0.187254 4.169997 0.080067
v -0.942380 4.031473 0.287355
v -0.942380 4.288687 0.287355
v -0.942380 4.031473 0.030141
v -0.942380 4.288687 0.030141
v 0.946897 4.031473 0.287355
v 0.946897 4.288687 0.287355
v 0.946897 4.031473 0.030141
v 0.946897 4.288687 0.030141
v 0.516259 4.051175 0.049842
v -0.511742 4.051175 0.049842
v -0.511742 4.268986 0.049842
v 0.516259 4.268986 0.049842
v -0.511742 4.051175 0.267654
v 0.516259 4.051175 0.267654
v 0.516259 4.268986 0.267654
v -0.511742 4.268986 0.267654
v -0.792365 4.278974 0.224836
v -0.547193 4.278974 0.224836
v -0.792365 4.234188 0.250693
v -0.547193 4.234189 0.250693
v -0.792365 4.234188 0.302407
v -0.547193 4.234189 0.302407
v -0.792365 4.278974 0.328264
v -0.547193 4.278974 0.328264
v -0.792365 4.323759 0.302407
v -0.547193 4.323760 0.302407
v -0.792365 4.323759 0.250693
v -0.547193 4.323760 0.250693
v -0.389119 4.278974 0.223795
v -0.139008 4.278974 0.223795
v -0.389119 4.233286 0.250172
v -0.139008 4.233286 0.250172
v -0.389119 4.233286 0.302928
v -0.139008 4.233286 0.302928
v -0.389119 4.278974 0.329306
v -0.139008 4.278974 0.329306
v -0.389119 4.324661 0.302928
v -0.139008 4.324661 0.302928
v -0.389119 4.324661 0.250172
v -0.139008 4.324661 0.250172
v 0.082313 4.278974 0.225186
v 0.325827 4.278974 0.225186
v 0.082313 4.234491 0.250868
v 0.325827 4.234491 0.250868
v 0.082313 4.234491 0.302232
v 0.325827 4.234491 0.302232
v 0.082313 4.278974 0.327914
v 0.325827 4.278974 0.327914
v 0.082313 4.323456 0.302232
v 0.325827 4.323456 0.302232
v 0.082313 4.323456 0.250868
v 0.325827 4.323456 0.250868
v 0.553142 4.278974 0.227338
v 0.786455 4.278974 0.227338
v 0.553142 4.236354 0.251944
v 0.786455 4.236355 0.251944
v 0.553142 4.236354 0.301156
v 0.786455 4.236355 0.301156
v 0.553142 4.278974 0.325762
v 0.786455 4.278974 0.325762
v 0.553142 4.321593 0.301156
v 0.786455 4.321593 0.301156
v 0.553142 4.321593 0.251944
v 0.786455 4.321593 0.251944
vt 0.916667 0.000000
vt 0.833333 0.000000
vt 0.833333 0.000000
vt 0.916667 0.000000
vt 0.750000 0.000000
vt 0.750000 0.000000
vt 0.666667 0.000000
vt 0.666667 0.000000
vt 0.583333 0.000000
vt 0.583333 0.000000
vt 0.500000 0.000000
vt 0.500000 0.000000
vt 0.416667 0.000000
vt 0.416667 0.000000
vt 0.333333 0.000000
vt 0.333333 0.000000
vt 0.250000 0.000000
vt 0.250000 0.000000
vt 0.166667 0.000000
vt 0.166667 0.000000
vt 0.083333 0.000000
vt 0.083333 0.000000
vt 0.166667 1.000000
vt 0.083333 1.000000
vt 0.250000 1.000000
vt 0.333333 1.000000
vt 0.416667 1.000000
vt 0.500000 1.000000
vt 0.583333 1.000000
vt 0.666667 1.000000
vt 0.750000 1.000000
vt 0.833333 1.000000
vt 0.916667 1.000000
vt 1.000000 0.000000
vt 1.000000 1.000000
vt 0.000000 0.000000
vt 0.000000 0.000000
vt 1.000000 0.000000
vt 0.000000 1.000000
vt 0.541667 0.000000
vt 0.625000 0.000000
vt 0.625000 0.250000
vt 0.541667 0.250000
vt 0.625000 0.500000
vt 0.541667 0.500000
vt 0.625000 0.750000
vt 0.541667 0.750000
vt 0.625000 1.000000
vt 0.541667 1.000000
vt 0.125000 0.500000
vt 0.375000 0.500000
vt 0.375000 0.750000
vt 0.125000 0.750000
vt 0.875000 0.500000
vt 0.875000 0.750000
vt 0.458333 0.750000
vt 0.458333 1.000000
vt 0.375000 1.000000
vt 0.458333 0.500000
vt 0.375000 0.250000
vt 0.458333 0.250000
vt 0.375000 0.000000
vt 0.458333 0.000000
vt 0.375000 0.000000
vt 0.625000 0.000000
vt 0.625000 0.250000
vt 0.375000 0.250000
vt 0.375000 0.416667
vt 0.625000 0.416667
vt 0.625000 0.500000
vt 0.375000 0.500000
vt 0.625000 0.750000
vt 0.375000 0.750000
vt 0.375000 0.916667
vt 0.625000 0.916667
vt 0.625000 1.000000
vt 0.375000 1.000000
vt 0.291667 0.500000
vt 0.291667 0.750000
vt 0.791667 0.500000
vt 0.875000 0.500000
vt 0.875000 0.750000
vt 0.791667 0.750000
vt 0.708333 0.500000
vt 0.708333 0.750000
vt 0.125000 0.500000
vt 0.208333 0.500000
vt 0.208333 0.750000
vt 0.125000 0.750000
vt 0.625000 0.833333
vt 0.375000 0.833333
vt 0.625000 0.333333
vt 0.375000 0.333333
vt 0.500000 0.000000
vt 0.625000 0.000000
vt 0.625000 0.250000
vt 0.500000 0.250000
vt 0.625000 0.500000
vt 0.500000 0.500000
vt 0.625000 0.750000
vt 0.500000 0.750000
vt 0.625000 1.000000
vt 0.500000 1.000000
vt 0.125000 0.500000
vt 0.375000 0.500000
vt 0.375000 0.750000
vt 0.125000 0.750000
vt 0.875000 0.500000
vt 0.875000 0.750000
vt 0.375000 1.000000
vt 0.375000 0.250000
vt 0.375000 0.000000
vt 1.000000 0.500000
vt 1.000000 1.000000
vt 0.833333 1.000000
vt 0.833333 0.500000
vt 0.666667 1.000000
vt 0.666667 0.500000
vt 0.500000 1.000000
vt 0.500000 0.500000
vt 0.333333 1.000000
vt 0.333333 0.500000
vt 0.457846 0.370000
vt 0.250000 0.490000
vt 0.042154 0.370000
vt 0.042154 0.130000
vt 0.250000 0.010000
vt 0.457846 0.130000
vt 0.166667 1.000000
vt 0.166667 0.500000
vt -0.000000 1.000000
vt -0.000000 0.500000
vt 0.750000 0.490000
vt 0.957846 0.370000
vt 0.957846 0.130000
vt 0.750000 0.010000
vt 0.542154 0.130000
vt 0.542154 0.370000
vt 1.000000 0.500000
vt 1.000000 1.000000
vt 0.833333 1.000000
vt 0.833333 0.500000
vt 0.666667 1.000000
vt 0.666667 0.500000
vt 0.500000 1.000000
vt 0.500000 0.500000
vt 0.333333 1.000000
vt 0.333333 0.500000
vt 0.457846 0.370000
vt 0.250000 0.490000
vt 0.042154 0.370000
vt 0.042154 0.130000
vt 0.250000 0.010000
vt 0.457846 0.130000
vt 0.166667 1.000000
vt 0.166667 0.500000
vt -0.000000 1.000000
vt -0.000000 0.500000
vt 0.750000 0.490000
vt 0.957846 0.370000
vt 0.957846 0.130000
vt 0.750000 0.010000
vt 0.542154 0.130000
vt 0.542154 0.370000
vt 1.000000 0.500000
vt 1.000000 1.000000
vt 0.833333 1.000000
vt 0.833333 0.500000
vt 0.666667 1.000000
vt 0.666667 0.500000
vt 0.500000 1.000000
vt 0.500000 0.500000
vt 0.333333 1.000000
vt 0.333333 0.500000
vt 0.457846 0.370000
vt 0.250000 0.490000
vt 0.042154 0.370000
vt 0.042154 0.130000
vt 0.250000 0.010000
vt 0.457846 0.130000
vt 0.166667 1.000000
vt 0.166667 0.500000
vt -0.000000 1.000000
vt -0.000000 0.500000
vt 0.750000 0.490000
vt 0.957846 0.370000
vt 0.957846 0.130000
vt 0.750000 0.010000
vt 0.542154 0.130000
vt 0.542154 0.370000
vt 1.000000 0.500000
vt 1.000000 1.000000
vt 0.833333 1.000000
vt 0.833333 0.500000
vt 0.666667 1.000000
vt 0.666667 0.500000
vt 0.500000 1.000000
vt 0.500000 0.500000
vt 0.333333 1.000000
vt 0.333333 0.500000
vt 0.457846 0.370000
vt 0.250000 0.490000
vt 0.042154 0.370000
vt 0.042154 0.130000
vt 0.250000 0.010000
vt 0.457846 0.130000
vt 0.166667 1.000000
vt 0.166667 0.500000
vt -0.000000 1.000000
vt -0.000000 0.500000
vt 0.750000 0.490000
vt 0.957846 0.370000
vt 0.957846 0.130000
vt 0.750000 0.010000
vt 0.542154 0.130000
vt 0.542154 0.370000
vn 0.0000 0.0000 1.0000
vn 0.0000 0.9947 0.1024
vn -0.9994 -0.0263 0.0235
vn 0.0000 -0.0220 -0.9998
vn 0.9994 -0.0263 0.0235
vn 0.0000 -0.0220 0.9998
vn 0.0000 -1.0000 0.0000
vn 0.0000 1.0000 0.0000
vn 0.0000 0.0321 0.9995
vn 0.0000 0.0063 1.0000
vn 0.9995 0.0321 0.0000
vn 0.9996 0.0106 0.0257
vn 0.0000 0.0321 -0.9995
vn 0.0000 0.0063 -1.0000
vn -0.9995 0.0321 0.0000
vn -0.9996 0.0106 0.0257
vn -1.0000 0.0000 0.0000
vn -0.0457 0.0000 -0.9990
vn 1.0000 0.0000 0.0000
vn 0.0457 0.0000 0.9990
vn -0.0457 -0.9990 0.0000
vn 0.0457 0.9990 0.0000
vn -0.0457 0.9990 0.0000
vn 0.0457 -0.9990 0.0000
vn -0.0457 0.0000 0.9990
vn 0.0457 0.0000 -0.9990
vn 0.0000 0.0000 -1.0000
vn -0.9952 -0.0982 0.0000
vn 0.0000 -0.0982 -0.9952
vn 0.9952 -0.0982 0.0000
vn 0.0000 -0.0982 0.9952
vn 0.0000 0.0982 0.9952
vn 0.9952 0.0982 0.0000
vn 0.0000 0.0982 -0.9952
vn -0.9952 0.0982 0.0000
vn 0.0000 -0.5000 -0.8660
vn 0.0000 -0.5000 0.8660
vn -0.0000 0.5000 0.8660
vn -0.0000 0.5000 -0.8660
usemtl Material.011
s off
f 17/1/1 16/2/1 38/3/1 39/4/1
f 16/2/1 15/5/1 37/6/1 38/3/1
f 15/5/1 14/7/1 36/8/1 37/6/1
f 14/7/1 13/9/1 35/10/1 36/8/1
f 13/9/1 12/11/1 34/12/1 35/10/1
f 12/11/1 11/13/1 33/14/1 34/12/1
f 11/13/1 10/15/1 32/16/1 33/14/1
f 10/15/1 9/17/1 31/18/1 32/16/1
f 9/17/1 8/19/1 30/20/1 31/18/1
f 8/19/1 7/21/1 29/22/1 30/20/1
f 7/21/2 8/19/2 27/23/2 28/24/2
f 8/19/2 9/17/2 26/25/2 27/23/2
f 9/17/2 10/15/2 25/26/2 26/25/2
f 10/15/2 11/13/2 24/27/2 25/26/2
f 11/13/2 12/11/2 23/28/2 24/27/2
f 12/11/2 13/9/2 22/29/2 23/28/2
f 13/9/2 14/7/2 21/30/2 22/29/2
f 14/7/2 15/5/2 20/31/2 21/30/2
f 15/5/2 16/2/2 19/32/2 20/31/2
f 16/2/2 17/1/2 18/33/2 19/32/2
usemtl Material.013
f 17/1/2 2/34/2 4/35/2 18/33/2
f 7/21/1 1/36/1 5/37/1 29/22/1
f 2/34/1 17/1/1 39/4/1 6/38/1
f 1/36/2 7/21/2 28/24/2 3/39/2
usemtl Material.002
f 49/40/3 41/41/3 43/42/3 50/43/3
f 50/43/4 43/42/4 47/44/4 52/45/4
f 52/45/5 47/44/5 45/46/5 54/47/5
f 54/47/6 45/46/6 41/48/6 49/49/6
f 42/50/7 46/51/7 44/52/7 40/53/7
f 47/44/8 43/54/8 41/55/8 45/46/8
f 44/52/9 55/56/9 48/57/9 40/58/9
f 55/56/10 54/47/10 49/49/10 48/57/10
f 46/51/11 53/59/11 55/56/11 44/52/11
f 53/59/12 52/45/12 54/47/12 55/56/12
f 42/60/13 51/61/13 53/59/13 46/51/13
f 51/61/14 50/43/14 52/45/14 53/59/14
f 40/62/15 48/63/15 51/61/15 42/60/15
f 48/63/16 49/40/16 50/43/16 51/61/16
f 68/64/17 69/65/17 71/66/17 70/67/17
f 76/68/18 79/69/18 75/70/18 74/71/18
f 74/71/19 75/70/19 73/72/19 72/73/19
f 80/74/20 83/75/20 69/76/20 68/77/20
f 76/78/21 74/71/21 72/73/21 81/79/21
f 78/80/22 71/81/22 69/82/22 83/83/22
f 75/70/23 79/84/23 82/85/23 73/72/23
f 79/84/8 78/80/8 83/83/8 82/85/8
f 70/86/24 77/87/24 80/88/24 68/89/24
f 77/87/7 76/78/7 81/79/7 80/88/7
f 72/73/25 73/72/25 82/90/25 81/91/25
f 81/91/1 82/90/1 83/75/1 80/74/1
f 70/67/26 71/66/26 78/92/26 77/93/26
f 77/93/27 78/92/27 79/69/27 76/68/27
usemtl Material.006
f 64/94/28 57/95/28 59/96/28 65/97/28
f 65/97/29 59/96/29 63/98/29 66/99/29
f 66/99/30 63/98/30 61/100/30 67/101/30
f 67/101/31 61/100/31 57/102/31 64/103/31
f 58/104/7 62/105/7 60/106/7 56/107/7
f 63/98/8 59/108/8 57/109/8 61/100/8
f 60/106/32 67/101/32 64/103/32 56/110/32
f 62/105/33 66/99/33 67/101/33 60/106/33
f 58/111/34 65/97/34 66/99/34 62/105/34
f 56/112/35 64/94/35 65/97/35 58/111/35
usemtl Material.012
f 84/113/36 85/114/36 87/115/36 86/116/36
f 86/116/7 87/115/7 89/117/7 88/118/7
f 88/118/37 89/117/37 91/119/37 90/120/37
f 90/120/38 91/119/38 93/121/38 92/122/38
f 87/123/19 85/124/19 95/125/19 93/126/19 91/127/19 89/128/19
f 92/122/8 93/121/8 95/129/8 94/130/8
f 94/130/39 95/129/39 85/131/39 84/132/39
f 84/133/17 86/134/17 88/135/17 90/136/17 92/137/17 94/138/17
f 96/139/36 97/140/36 99/141/36 98/142/36
f 98/142/7 99/141/7 101/143/7 100/144/7
f 100/144/37 101/143/37 103/145/37 102/146/37
f 102/146/38 103/145/38 105/147/38 104/148/38
f 99/149/19 97/150/19 107/151/19 105/152/19 103/153/19 101/154/19
f 104/148/8 105/147/8 107/155/8 106/156/8
f 106/156/39 107/155/39 97/157/39 96/158/39
f 96/159/17 98/160/17 100/161/17 102/162/17 104/163/17 106/164/17
f 108/165/36 109/166/36 111/167/36 110/168/36
f 110/168/7 111/167/7 113/169/7 112/170/7
f 112/170/37 113/169/37 115/171/37 114/172/37
f 114/172/38 115/171/38 117/173/38 116/174/38
f 111/175/19 109/176/19 119/177/19 117/178/19 115/179/19 113/180/19
f 116/174/8 117/173/8 119/181/8 118/182/8
f 118/182/39 119/181/39 109/183/39 108/184/39
f 108/185/17 110/186/17 112/187/17 114/188/17 116/189/17 118/190/17
f 120/191/36 121/192/36 123/193/36 122/194/36
f 122/194/7 123/193/7 125/195/7 124/196/7
f 124/196/37 125/195/37 127/197/37 126/198/37
f 126/198/38 127/197/38 129/199/38 128/200/38
f 123/201/19 121/202/19 131/203/19 129/204/19 127/205/19 125/206/19
f 128/200/8 129/199/8 131/207/8 130/208/8
f 130/208/39 131/207/39 121/209/39 120/210/39
f 120/211/17 122/212/17 124/213/17 126/214/17 128/215/17 130/216/17
