# Blender v3.1.2 OBJ File: 'asset.blend'
# www.blender.org
mtllib fence1.mtl
o Cube.003_Cube.007
v 2.428215 0.457006 0.026691
v 2.428215 1.026653 0.026691
v 2.428215 0.457006 0.124705
v 2.428215 1.026653 0.124705
v -2.565832 0.443715 0.024406
v -2.565832 1.039944 0.024406
v -2.565832 0.443715 0.126993
v -2.565832 1.039944 0.126993
v -0.901150 0.491222 0.118819
v 0.763532 0.515425 0.114654
v 0.763532 0.968234 0.114654
v -0.901150 0.992438 0.118819
v 0.763532 0.515425 0.036744
v -0.901150 0.491222 0.032580
v -0.901150 0.992438 0.032580
v 0.763532 0.968234 0.036744
v 2.495668 1.321582 0.032579
v 2.495668 1.822798 0.032579
v 2.495668 1.321582 0.118818
v 2.495668 1.822798 0.118818
v -2.498378 1.321582 0.032580
v -2.498378 1.822798 0.032580
v -2.498378 1.321582 0.118819
v -2.498378 1.822798 0.118819
v -1.222098 1.336746 0.116210
v -0.164129 1.294601 0.117860
v 1.219388 1.340355 0.115588
v 1.219388 1.804024 0.115588
v -0.164129 1.784669 0.117860
v -1.222098 1.807634 0.116210
v 1.219388 1.340355 0.035809
v -0.164129 1.294601 0.033538
v -1.222098 1.336746 0.035189
v -1.222098 1.807634 0.035189
v -0.164129 1.784669 0.033538
v 1.219388 1.804024 0.035809
v 2.122807 0.024412 0.110401
v 2.144379 2.031431 0.088827
v 2.122807 0.024412 0.415777
v 2.144379 2.031431 0.437350
v 1.817431 0.024412 0.110401
v 1.795856 2.031431 0.088827
v 1.817431 0.024412 0.415777
v 1.795857 2.031431 0.437350
v 2.096981 0.526167 0.120956
v 2.105335 1.027922 0.135455
v 2.073776 1.535802 0.122679
v 2.073776 1.535802 0.403498
v 2.105335 1.027922 0.397640
v 2.096981 0.526167 0.391287
v 1.792957 1.535802 0.403498
v 1.843150 1.027922 0.397640
v 1.826650 0.526167 0.391287
v 1.792957 1.535802 0.122679
v 1.843150 1.027922 0.135455
v 1.826650 0.526167 0.120956
v -1.824747 0.024412 0.110402
v -1.803174 2.031431 0.088828
v -1.824747 0.024412 0.415778
v -1.803174 2.031431 0.437351
v -2.130123 0.024412 0.110402
v -2.151697 2.031431 0.088829
v -2.130123 0.024412 0.415778
v -2.151697 2.031431 0.437351
v -1.850573 0.526167 0.120957
v -1.842219 1.027922 0.135457
v -1.873777 1.535802 0.122680
v -1.873777 1.535802 0.403500
v -1.842219 1.027922 0.397641
v -1.850573 0.526167 0.391288
v -2.154596 1.535802 0.403500
v -2.104404 1.027922 0.397641
v -2.120903 0.526167 0.391288
v -2.154596 1.535802 0.122680
v -2.104404 1.027922 0.135457
v -2.120903 0.526167 0.120957
vt 0.375000 0.000000
vt 0.625000 0.000000
vt 0.625000 0.250000
vt 0.375000 0.250000
vt 0.375000 0.416667
vt 0.625000 0.416667
vt 0.625000 0.500000
vt 0.375000 0.500000
vt 0.625000 0.750000
vt 0.375000 0.750000
vt 0.375000 0.916667
vt 0.625000 0.916667
vt 0.625000 1.000000
vt 0.375000 1.000000
vt 0.291667 0.500000
vt 0.291667 0.750000
vt 0.791667 0.500000
vt 0.875000 0.500000
vt 0.875000 0.750000
vt 0.791667 0.750000
vt 0.708333 0.500000
vt 0.708333 0.750000
vt 0.125000 0.500000
vt 0.208333 0.500000
vt 0.208333 0.750000
vt 0.125000 0.750000
vt 0.625000 0.833333
vt 0.375000 0.833333
vt 0.625000 0.333333
vt 0.375000 0.333333
vt 0.375000 0.000000
vt 0.625000 0.000000
vt 0.625000 0.250000
vt 0.375000 0.250000
vt 0.375000 0.437500
vt 0.625000 0.437500
vt 0.625000 0.500000
vt 0.375000 0.500000
vt 0.625000 0.750000
vt 0.375000 0.750000
vt 0.375000 0.937500
vt 0.625000 0.937500
vt 0.625000 1.000000
vt 0.375000 1.000000
vt 0.312500 0.500000
vt 0.312500 0.750000
vt 0.812500 0.500000
vt 0.875000 0.500000
vt 0.875000 0.750000
vt 0.812500 0.750000
vt 0.687500 0.500000
vt 0.687500 0.750000
vt 0.750000 0.500000
vt 0.750000 0.750000
vt 0.125000 0.500000
vt 0.187500 0.500000
vt 0.187500 0.750000
vt 0.125000 0.750000
vt 0.250000 0.500000
vt 0.250000 0.750000
vt 0.625000 0.812500
vt 0.375000 0.812500
vt 0.625000 0.875000
vt 0.375000 0.875000
vt 0.625000 0.312500
vt 0.375000 0.312500
vt 0.625000 0.375000
vt 0.375000 0.375000
vt 0.562500 0.000000
vt 0.625000 0.000000
vt 0.625000 0.250000
vt 0.562500 0.250000
vt 0.625000 0.500000
vt 0.562500 0.500000
vt 0.625000 0.750000
vt 0.562500 0.750000
vt 0.625000 1.000000
vt 0.562500 1.000000
vt 0.125000 0.500000
vt 0.375000 0.500000
vt 0.375000 0.750000
vt 0.125000 0.750000
vt 0.875000 0.500000
vt 0.875000 0.750000
vt 0.437500 0.750000
vt 0.437500 1.000000
vt 0.375000 1.000000
vt 0.500000 0.750000
vt 0.500000 1.000000
vt 0.437500 0.500000
vt 0.500000 0.500000
vt 0.375000 0.250000
vt 0.437500 0.250000
vt 0.500000 0.250000
vt 0.375000 0.000000
vt 0.437500 0.000000
vt 0.500000 0.000000
vt 0.562500 0.000000
vt 0.625000 0.000000
vt 0.625000 0.250000
vt 0.562500 0.250000
vt 0.625000 0.500000
vt 0.562500 0.500000
vt 0.625000 0.750000
vt 0.562500 0.750000
vt 0.625000 1.000000
vt 0.562500 1.000000
vt 0.125000 0.500000
vt 0.375000 0.500000
vt 0.375000 0.750000
vt 0.125000 0.750000
vt 0.875000 0.500000
vt 0.875000 0.750000
vt 0.437500 0.750000
vt 0.437500 1.000000
vt 0.375000 1.000000
vt 0.500000 0.750000
vt 0.500000 1.000000
vt 0.437500 0.500000
vt 0.500000 0.500000
vt 0.375000 0.250000
vt 0.437500 0.250000
vt 0.500000 0.250000
vt 0.375000 0.000000
vt 0.437500 0.000000
vt 0.500000 0.000000
vn 1.0000 0.0000 0.0000
vn 0.0049 0.0000 1.0000
vn -1.0000 0.0000 0.0000
vn -0.0060 0.0000 -1.0000
vn 0.0285 -0.9996 0.0000
vn -0.0351 0.9994 0.0000
vn 0.0285 0.9996 0.0000
vn 0.0145 0.9999 0.0000
vn -0.0351 -0.9994 0.0000
vn 0.0145 -0.9999 0.0000
vn 0.0049 0.0000 -1.0000
vn 0.0025 0.0000 -1.0000
vn -0.0060 0.0000 1.0000
vn 0.0025 0.0000 1.0000
vn 0.0020 0.0000 1.0000
vn -0.0025 0.0000 -1.0000
vn 0.0119 -0.9999 0.0000
vn -0.0147 0.9999 0.0000
vn 0.0119 0.9999 0.0000
vn 0.0217 0.9998 -0.0000
vn -0.0140 0.9999 0.0000
vn -0.0147 -0.9999 0.0000
vn 0.0331 -0.9995 -0.0000
vn -0.0398 -0.9992 0.0000
vn 0.0020 0.0000 -1.0000
vn -0.0016 0.0000 -1.0000
vn 0.0016 0.0000 -1.0000
vn -0.0025 0.0000 1.0000
vn 0.0016 0.0000 1.0000
vn -0.0016 0.0000 1.0000
vn 0.9900 -0.1410 0.0000
vn 0.0000 -0.0681 0.9977
vn -1.0000 0.0058 0.0000
vn -0.0000 -0.0681 -0.9977
vn 0.0000 -1.0000 0.0000
vn 0.0000 1.0000 0.0000
vn -0.0000 0.0210 -0.9998
vn -0.0000 0.0289 -0.9996
vn -0.0000 -0.0251 -0.9997
vn -0.9998 0.0184 0.0000
vn -0.9995 0.0329 0.0000
vn -0.9952 -0.0983 0.0000
vn 0.0000 0.0488 0.9988
vn 0.0000 -0.0127 0.9999
vn 0.0000 -0.0115 0.9999
vn 0.9987 0.0514 0.0000
vn 0.9999 -0.0166 0.0000
vn 0.9981 0.0620 0.0000
vn -1.0000 0.0059 0.0000
usemtl Material.002
s off
f 1/1/1 2/2/1 4/3/1 3/4/1
f 9/5/2 12/6/2 8/7/2 7/8/2
f 7/8/3 8/7/3 6/9/3 5/10/3
f 13/11/4 16/12/4 2/13/4 1/14/4
f 9/15/5 7/8/5 5/10/5 14/16/5
f 11/17/6 4/18/6 2/19/6 16/20/6
f 8/7/7 12/21/7 15/22/7 6/9/7
f 12/21/8 11/17/8 16/20/8 15/22/8
f 3/23/9 10/24/9 13/25/9 1/26/9
f 10/24/10 9/15/10 14/16/10 13/25/10
f 5/10/11 6/9/11 15/27/11 14/28/11
f 14/28/12 15/27/12 16/12/12 13/11/12
f 3/4/13 4/3/13 11/29/13 10/30/13
f 10/30/14 11/29/14 12/6/14 9/5/14
f 17/31/1 18/32/1 20/33/1 19/34/1
f 25/35/15 30/36/15 24/37/15 23/38/15
f 23/38/3 24/37/3 22/39/3 21/40/3
f 31/41/16 36/42/16 18/43/16 17/44/16
f 25/45/17 23/38/17 21/40/17 33/46/17
f 28/47/18 20/48/18 18/49/18 36/50/18
f 24/37/19 30/51/19 34/52/19 22/39/19
f 30/51/20 29/53/20 35/54/20 34/52/20
f 29/53/21 28/47/21 36/50/21 35/54/21
f 19/55/22 27/56/22 31/57/22 17/58/22
f 27/56/23 26/59/23 32/60/23 31/57/23
f 26/59/24 25/45/24 33/46/24 32/60/24
f 21/40/25 22/39/25 34/61/25 33/62/25
f 33/62/26 34/61/26 35/63/26 32/64/26
f 32/64/27 35/63/27 36/42/27 31/41/27
f 19/34/28 20/33/28 28/65/28 27/66/28
f 27/66/29 28/65/29 29/67/29 26/68/29
f 26/68/30 29/67/30 30/36/30 25/35/30
f 47/69/31 38/70/31 40/71/31 48/72/31
f 48/72/32 40/71/32 44/73/32 51/74/32
f 51/74/33 44/73/33 42/75/33 54/76/33
f 54/76/34 42/75/34 38/77/34 47/78/34
f 39/79/35 43/80/35 41/81/35 37/82/35
f 44/73/36 40/83/36 38/84/36 42/75/36
f 41/81/37 56/85/37 45/86/37 37/87/37
f 56/85/38 55/88/38 46/89/38 45/86/38
f 55/88/39 54/76/39 47/78/39 46/89/39
f 43/80/40 53/90/40 56/85/40 41/81/40
f 53/90/41 52/91/41 55/88/41 56/85/41
f 52/91/42 51/74/42 54/76/42 55/88/42
f 39/92/43 50/93/43 53/90/43 43/80/43
f 50/93/44 49/94/44 52/91/44 53/90/44
f 49/94/45 48/72/45 51/74/45 52/91/45
f 37/95/46 45/96/46 50/93/46 39/92/46
f 45/96/47 46/97/47 49/94/47 50/93/47
f 46/97/48 47/69/48 48/72/48 49/94/48
f 67/98/31 58/99/31 60/100/31 68/101/31
f 68/101/32 60/100/32 64/102/32 71/103/32
f 71/103/49 64/102/49 62/104/49 74/105/49
f 74/105/34 62/104/34 58/106/34 67/107/34
f 59/108/35 63/109/35 61/110/35 57/111/35
f 64/102/36 60/112/36 58/113/36 62/104/36
f 61/110/37 76/114/37 65/115/37 57/116/37
f 76/114/38 75/117/38 66/118/38 65/115/38
f 75/117/39 74/105/39 67/107/39 66/118/39
f 63/109/40 73/119/40 76/114/40 61/110/40
f 73/119/41 72/120/41 75/117/41 76/114/41
f 72/120/42 71/103/42 74/105/42 75/117/42
f 59/121/43 70/122/43 73/119/43 63/109/43
f 70/122/44 69/123/44 72/120/44 73/119/44
f 69/123/45 68/101/45 71/103/45 72/120/45
f 57/124/46 65/125/46 70/122/46 59/121/46
f 65/125/47 66/126/47 69/123/47 70/122/47
f 66/126/48 67/98/48 68/101/48 69/123/48
