# Blender v3.1.2 OBJ File: 'asset.blend'
# www.blender.org
mtllib barrel.mtl
o Cube.020_Cube.033
v 0.616565 0.316260 -0.206705
v 0.607888 0.282657 -0.222641
v 0.616565 0.316260 -0.880498
v 0.607888 0.282657 -0.864561
v 0.249693 0.329580 0.062925
v 0.258370 0.269967 0.034235
v 0.249693 0.329581 -1.150128
v 0.258370 0.269967 -1.121438
v 0.242865 0.329580 0.062925
v 0.235149 0.269652 0.035509
v 0.242865 0.329581 -1.150128
v 0.235149 0.269652 -1.122712
v -0.098553 0.329581 0.062925
v -0.090837 0.269652 0.035509
v -0.098553 0.329581 -1.150128
v -0.090837 0.269652 -1.122712
v -0.105381 0.329581 0.062925
v -0.113616 0.269951 0.035697
v -0.105381 0.329581 -1.150128
v -0.113616 0.269951 -1.122899
v -0.472267 0.316260 -0.206705
v -0.464032 0.282674 -0.221829
v -0.472267 0.316260 -0.880498
v -0.464032 0.282674 -0.865373
v -0.180705 0.209625 0.049002
v -0.180705 1.950186 0.049002
v -0.150179 0.209625 -0.077516
v -0.150179 1.950186 -0.077516
v 0.305868 0.209625 0.049002
v 0.305868 1.950186 0.049002
v 0.275342 0.209625 -0.077516
v 0.275342 1.950186 -0.077516
v -0.227230 0.656572 0.168694
v -0.227230 1.503240 0.168694
v -0.200514 1.503240 0.040623
v -0.200514 0.656572 0.040623
v 0.325677 1.503240 0.040623
v 0.325677 0.656572 0.040623
v 0.352393 1.503240 0.168694
v 0.352393 0.656572 0.168694
v -0.550921 0.209625 -0.303873
v -0.550921 1.950186 -0.303873
v -0.440147 0.209625 -0.372196
v -0.440147 1.950186 -0.372196
v -0.205480 0.209625 0.038799
v -0.205480 1.950186 0.038799
v -0.138050 0.209625 -0.072521
v -0.138050 1.950186 -0.072521
v -0.668244 0.656572 -0.251664
v -0.668244 1.503240 -0.251664
v -0.559083 1.503240 -0.323772
v -0.559083 0.656572 -0.323772
v -0.185515 1.503240 0.046801
v -0.185515 0.656572 0.046801
v -0.256742 1.503240 0.156538
v -0.256742 0.656572 0.156539
v -0.565240 0.209625 -0.815122
v -0.565240 1.950186 -0.815122
v -0.438479 0.209625 -0.785616
v -0.438479 1.950186 -0.785616
v -0.561323 0.209625 -0.328565
v -0.561323 1.950186 -0.328565
v -0.435055 0.209625 -0.360108
v -0.435055 1.950186 -0.360108
v -0.685301 0.656572 -0.860683
v -0.685301 1.503240 -0.860683
v -0.557020 1.503240 -0.834998
v -0.557020 0.656572 -0.834998
v -0.552785 1.503240 -0.308824
v -0.552785 0.656572 -0.308824
v -0.680636 1.503240 -0.281078
v -0.680636 0.656572 -0.281078
v -0.215355 0.209625 -1.188166
v -0.215355 1.950186 -1.188166
v -0.146143 0.209625 -1.077947
v -0.146143 1.950186 -1.077947
v -0.555236 0.209625 -0.839978
v -0.555236 1.950186 -0.839978
v -0.443377 0.209625 -0.773447
v -0.443377 1.950186 -0.773447
v -0.268507 0.656572 -1.305066
v -0.268507 1.503240 -1.305066
v -0.195523 1.503240 -1.196489
v -0.195523 0.656572 -1.196489
v -0.563077 1.503240 -0.819951
v -0.563077 0.656572 -0.819951
v -0.673384 1.503240 -0.890292
v -0.673384 0.656572 -0.890292
v 0.295762 0.209625 -1.206600
v 0.295762 1.950186 -1.206600
v 0.267277 0.209625 -1.079606
v 0.267277 1.950186 -1.079606
v -0.190748 0.209625 -1.198768
v -0.190748 1.950186 -1.198767
v -0.158189 0.209625 -1.072757
v -0.158189 1.950186 -1.072757
v 0.340355 0.656572 -1.327024
v 0.340355 1.503240 -1.327024
v 0.315703 1.503240 -1.198541
v 0.315703 0.656572 -1.198541
v -0.210419 1.503240 -1.190071
v -0.210419 0.656572 -1.190071
v -0.239194 1.503240 -1.317694
v -0.239194 0.656572 -1.317694
v 0.671610 0.209625 -0.859729
v 0.671610 1.950186 -0.859729
v 0.561951 0.209625 -0.789632
v 0.561951 1.950186 -0.789632
v 0.320698 0.209625 -1.196796
v 0.320698 1.950186 -1.196796
v 0.255069 0.209625 -1.084406
v 0.255069 1.950186 -1.084406
v 0.788078 0.656572 -0.913820
v 0.788078 1.503240 -0.913819
v 0.680092 1.503240 -0.839964
v 0.680092 0.656572 -0.839964
v 0.300608 1.503240 -1.204476
v 0.300608 0.656572 -1.204476
v 0.370059 1.503240 -1.315346
v 0.370059 0.656572 -1.315346
v 0.694157 0.209625 -0.348776
v 0.694157 1.950186 -0.348776
v 0.566938 0.209625 -0.376239
v 0.566938 1.950186 -0.376239
v 0.682409 0.209625 -0.835208
v 0.682409 1.950186 -0.835208
v 0.556665 0.209625 -0.801636
v 0.556665 1.950186 -0.801636
v 0.814936 0.656572 -0.305155
v 0.814936 1.503240 -0.305155
v 0.686258 1.503240 -0.328771
v 0.686258 0.656572 -0.328771
v 0.673555 1.503240 -0.854809
v 0.673554 0.656572 -0.854809
v 0.800942 1.503240 -0.884609
v 0.800942 0.656572 -0.884609
v 0.350322 0.209625 0.029851
v 0.350322 1.950186 0.029851
v 0.279345 0.209625 -0.079240
v 0.279345 1.950186 -0.079240
v 0.684554 0.209625 -0.323762
v 0.684554 1.950186 -0.323762
v 0.571639 0.209625 -0.388485
v 0.571639 1.950186 -0.388485
v 0.405349 0.656572 0.145880
v 0.405349 1.503240 0.145880
v 0.330626 1.503240 0.038491
v 0.330626 0.656572 0.038491
v 0.692072 1.503240 -0.343914
v 0.692072 0.656572 -0.343914
v 0.803497 1.503240 -0.275357
v 0.803497 0.656572 -0.275357
v -0.408703 1.783967 -0.118237
v -0.402833 1.817662 -0.135459
v -0.523074 1.783967 -0.784147
v -0.511794 1.817662 -0.769870
v -0.000356 1.770609 0.085966
v -0.013801 1.830388 0.059084
v -0.206262 1.770609 -1.112897
v -0.209967 1.830388 -1.083069
v 0.006393 1.770609 0.084807
v 0.009365 1.830704 0.056402
v -0.199513 1.770609 -1.114056
v -0.187233 1.830704 -1.088270
v 0.343817 1.770609 0.026854
v 0.331537 1.830704 0.001068
v 0.137911 1.770609 -1.172009
v 0.134939 1.830704 -1.143604
v 0.350565 1.770609 0.025695
v 0.354082 1.830404 -0.002613
v 0.144659 1.770609 -1.173168
v 0.157420 1.830404 -1.147655
v 0.667391 1.783967 -0.303057
v 0.656685 1.817647 -0.316607
v 0.553020 1.783967 -0.968967
v 0.547449 1.817647 -0.952622
v 0.392679 1.407711 -1.366652
v 0.392679 1.588715 -1.366652
v 0.851932 1.407711 -0.901884
v 0.851932 1.588715 -0.901884
v 0.848033 1.407711 -0.248502
v 0.848033 1.588715 -0.248502
v 0.383266 1.407711 0.210751
v 0.383266 1.588715 0.210751
v -0.270116 1.407711 0.206852
v -0.270116 1.588715 0.206852
v -0.729369 1.407711 -0.257916
v -0.729369 1.588715 -0.257916
v -0.725470 1.407711 -0.911297
v -0.725470 1.588715 -0.911297
v -0.260703 1.407711 -1.370551
v -0.260703 1.588715 -1.370551
v 0.392679 0.531315 -1.366652
v 0.392679 0.712319 -1.366652
v 0.851932 0.531315 -0.901884
v 0.851932 0.712319 -0.901884
v 0.848033 0.531315 -0.248502
v 0.848033 0.712319 -0.248502
v 0.383265 0.531315 0.210751
v 0.383265 0.712319 0.210751
v -0.270116 0.531315 0.206852
v -0.270116 0.712319 0.206852
v -0.729370 0.531315 -0.257916
v -0.729370 0.712319 -0.257916
v -0.725471 0.531315 -0.911297
v -0.725471 0.712319 -0.911297
v -0.260703 0.531315 -1.370551
v -0.260703 0.712319 -1.370551
vt 0.375000 0.000000
vt 0.625000 0.000000
vt 0.625000 0.250000
vt 0.375000 0.250000
vt 0.625000 0.500000
vt 0.375000 0.500000
vt 0.625000 0.750000
vt 0.375000 0.750000
vt 0.625000 1.000000
vt 0.375000 1.000000
vt 0.125000 0.500000
vt 0.125000 0.750000
vt 0.875000 0.500000
vt 0.875000 0.750000
vt 0.375000 0.000000
vt 0.625000 0.000000
vt 0.625000 0.250000
vt 0.375000 0.250000
vt 0.625000 0.500000
vt 0.375000 0.500000
vt 0.625000 0.750000
vt 0.375000 0.750000
vt 0.625000 1.000000
vt 0.375000 1.000000
vt 0.125000 0.500000
vt 0.125000 0.750000
vt 0.875000 0.500000
vt 0.875000 0.750000
vt 0.375000 0.000000
vt 0.625000 0.000000
vt 0.625000 0.250000
vt 0.375000 0.250000
vt 0.625000 0.500000
vt 0.375000 0.500000
vt 0.625000 0.750000
vt 0.375000 0.750000
vt 0.625000 1.000000
vt 0.375000 1.000000
vt 0.125000 0.500000
vt 0.125000 0.750000
vt 0.875000 0.500000
vt 0.875000 0.750000
vt 0.541667 0.000000
vt 0.625000 0.000000
vt 0.625000 0.250000
vt 0.541667 0.250000
vt 0.541667 0.500000
vt 0.625000 0.500000
vt 0.625000 0.750000
vt 0.541667 0.750000
vt 0.625000 1.000000
vt 0.541667 1.000000
vt 0.125000 0.500000
vt 0.375000 0.500000
vt 0.375000 0.750000
vt 0.125000 0.750000
vt 0.875000 0.500000
vt 0.875000 0.750000
vt 0.458333 0.750000
vt 0.458333 1.000000
vt 0.375000 1.000000
vt 0.458333 0.500000
vt 0.375000 0.000000
vt 0.458333 0.000000
vt 0.458333 0.250000
vt 0.375000 0.250000
vt 0.541667 0.000000
vt 0.625000 0.000000
vt 0.625000 0.250000
vt 0.541667 0.250000
vt 0.541667 0.500000
vt 0.625000 0.500000
vt 0.625000 0.750000
vt 0.541667 0.750000
vt 0.625000 1.000000
vt 0.541667 1.000000
vt 0.125000 0.500000
vt 0.375000 0.500000
vt 0.375000 0.750000
vt 0.125000 0.750000
vt 0.875000 0.500000
vt 0.875000 0.750000
vt 0.458333 0.750000
vt 0.458333 1.000000
vt 0.375000 1.000000
vt 0.458333 0.500000
vt 0.375000 0.000000
vt 0.458333 0.000000
vt 0.458333 0.250000
vt 0.375000 0.250000
vt 0.541667 0.000000
vt 0.625000 0.000000
vt 0.625000 0.250000
vt 0.541667 0.250000
vt 0.541667 0.500000
vt 0.625000 0.500000
vt 0.625000 0.750000
vt 0.541667 0.750000
vt 0.625000 1.000000
vt 0.541667 1.000000
vt 0.125000 0.500000
vt 0.375000 0.500000
vt 0.375000 0.750000
vt 0.125000 0.750000
vt 0.875000 0.500000
vt 0.875000 0.750000
vt 0.458333 0.750000
vt 0.458333 1.000000
vt 0.375000 1.000000
vt 0.458333 0.500000
vt 0.375000 0.000000
vt 0.458333 0.000000
vt 0.458333 0.250000
vt 0.375000 0.250000
vt 0.541667 0.000000
vt 0.625000 0.000000
vt 0.625000 0.250000
vt 0.541667 0.250000
vt 0.541667 0.500000
vt 0.625000 0.500000
vt 0.625000 0.750000
vt 0.541667 0.750000
vt 0.625000 1.000000
vt 0.541667 1.000000
vt 0.125000 0.500000
vt 0.375000 0.500000
vt 0.375000 0.750000
vt 0.125000 0.750000
vt 0.875000 0.500000
vt 0.875000 0.750000
vt 0.458333 0.750000
vt 0.458333 1.000000
vt 0.375000 1.000000
vt 0.458333 0.500000
vt 0.375000 0.000000
vt 0.458333 0.000000
vt 0.458333 0.250000
vt 0.375000 0.250000
vt 0.541667 0.000000
vt 0.625000 0.000000
vt 0.625000 0.250000
vt 0.541667 0.250000
vt 0.541667 0.500000
vt 0.625000 0.500000
vt 0.625000 0.750000
vt 0.541667 0.750000
vt 0.625000 1.000000
vt 0.541667 1.000000
vt 0.125000 0.500000
vt 0.375000 0.500000
vt 0.375000 0.750000
vt 0.125000 0.750000
vt 0.875000 0.500000
vt 0.875000 0.750000
vt 0.458333 0.750000
vt 0.458333 1.000000
vt 0.375000 1.000000
vt 0.458333 0.500000
vt 0.375000 0.000000
vt 0.458333 0.000000
vt 0.458333 0.250000
vt 0.375000 0.250000
vt 0.541667 0.000000
vt 0.625000 0.000000
vt 0.625000 0.250000
vt 0.541667 0.250000
vt 0.541667 0.500000
vt 0.625000 0.500000
vt 0.625000 0.750000
vt 0.541667 0.750000
vt 0.625000 1.000000
vt 0.541667 1.000000
vt 0.125000 0.500000
vt 0.375000 0.500000
vt 0.375000 0.750000
vt 0.125000 0.750000
vt 0.875000 0.500000
vt 0.875000 0.750000
vt 0.458333 0.750000
vt 0.458333 1.000000
vt 0.375000 1.000000
vt 0.458333 0.500000
vt 0.375000 0.000000
vt 0.458333 0.000000
vt 0.458333 0.250000
vt 0.375000 0.250000
vt 0.541667 0.000000
vt 0.625000 0.000000
vt 0.625000 0.250000
vt 0.541667 0.250000
vt 0.541667 0.500000
vt 0.625000 0.500000
vt 0.625000 0.750000
vt 0.541667 0.750000
vt 0.625000 1.000000
vt 0.541667 1.000000
vt 0.125000 0.500000
vt 0.375000 0.500000
vt 0.375000 0.750000
vt 0.125000 0.750000
vt 0.875000 0.500000
vt 0.875000 0.750000
vt 0.458333 0.750000
vt 0.458333 1.000000
vt 0.375000 1.000000
vt 0.458333 0.500000
vt 0.375000 0.000000
vt 0.458333 0.000000
vt 0.458333 0.250000
vt 0.375000 0.250000
vt 0.541667 0.000000
vt 0.625000 0.000000
vt 0.625000 0.250000
vt 0.541667 0.250000
vt 0.541667 0.500000
vt 0.625000 0.500000
vt 0.625000 0.750000
vt 0.541667 0.750000
vt 0.625000 1.000000
vt 0.541667 1.000000
vt 0.125000 0.500000
vt 0.375000 0.500000
vt 0.375000 0.750000
vt 0.125000 0.750000
vt 0.875000 0.500000
vt 0.875000 0.750000
vt 0.458333 0.750000
vt 0.458333 1.000000
vt 0.375000 1.000000
vt 0.458333 0.500000
vt 0.375000 0.000000
vt 0.458333 0.000000
vt 0.458333 0.250000
vt 0.375000 0.250000
vt 0.375000 0.000000
vt 0.625000 0.000000
vt 0.625000 0.250000
vt 0.375000 0.250000
vt 0.625000 0.500000
vt 0.375000 0.500000
vt 0.625000 0.750000
vt 0.375000 0.750000
vt 0.625000 1.000000
vt 0.375000 1.000000
vt 0.125000 0.500000
vt 0.125000 0.750000
vt 0.875000 0.500000
vt 0.875000 0.750000
vt 0.375000 0.000000
vt 0.625000 0.000000
vt 0.625000 0.250000
vt 0.375000 0.250000
vt 0.625000 0.500000
vt 0.375000 0.500000
vt 0.625000 0.750000
vt 0.375000 0.750000
vt 0.625000 1.000000
vt 0.375000 1.000000
vt 0.125000 0.500000
vt 0.125000 0.750000
vt 0.875000 0.500000
vt 0.875000 0.750000
vt 0.375000 0.000000
vt 0.625000 0.000000
vt 0.625000 0.250000
vt 0.375000 0.250000
vt 0.625000 0.500000
vt 0.375000 0.500000
vt 0.625000 0.750000
vt 0.375000 0.750000
vt 0.625000 1.000000
vt 0.375000 1.000000
vt 0.125000 0.500000
vt 0.125000 0.750000
vt 0.875000 0.500000
vt 0.875000 0.750000
vt 1.000000 0.500000
vt 1.000000 1.000000
vt 0.875000 1.000000
vt 0.875000 0.500000
vt 0.750000 1.000000
vt 0.750000 0.500000
vt 0.625000 1.000000
vt 0.625000 0.500000
vt 0.500000 1.000000
vt 0.500000 0.500000
vt 0.375000 1.000000
vt 0.375000 0.500000
vt 0.250000 1.000000
vt 0.250000 0.500000
vt 0.419706 0.419706
vt 0.250000 0.490000
vt 0.080294 0.419706
vt 0.010000 0.250000
vt 0.080294 0.080294
vt 0.250000 0.010000
vt 0.419706 0.080294
vt 0.490000 0.250000
vt 0.125000 1.000000
vt 0.125000 0.500000
vt 0.000000 1.000000
vt 0.000000 0.500000
vt 0.750000 0.490000
vt 0.919706 0.419706
vt 0.990000 0.250000
vt 0.919706 0.080294
vt 0.750000 0.010000
vt 0.580294 0.080294
vt 0.510000 0.250000
vt 0.580294 0.419706
vt 1.000000 0.500000
vt 1.000000 1.000000
vt 0.875000 1.000000
vt 0.875000 0.500000
vt 0.750000 1.000000
vt 0.750000 0.500000
vt 0.625000 1.000000
vt 0.625000 0.500000
vt 0.500000 1.000000
vt 0.500000 0.500000
vt 0.375000 1.000000
vt 0.375000 0.500000
vt 0.250000 1.000000
vt 0.250000 0.500000
vt 0.419706 0.419706
vt 0.250000 0.490000
vt 0.080294 0.419706
vt 0.010000 0.250000
vt 0.080294 0.080294
vt 0.250000 0.010000
vt 0.419706 0.080294
vt 0.490000 0.250000
vt 0.125000 1.000000
vt 0.125000 0.500000
vt 0.000000 1.000000
vt 0.000000 0.500000
vt 0.750000 0.490000
vt 0.919706 0.419706
vt 0.990000 0.250000
vt 0.919706 0.080294
vt 0.750000 0.010000
vt 0.580294 0.080294
vt 0.510000 0.250000
vt 0.580294 0.419706
vn 0.9682 -0.2500 -0.0000
vn 0.5523 -0.3600 -0.7519
vn -0.9896 -0.1440 -0.0000
vn 0.5523 -0.3600 0.7519
vn 0.0363 0.9993 0.0000
vn 0.0363 -0.9993 -0.0000
vn 0.9918 -0.1277 -0.0000
vn 0.0000 -0.4160 -0.9094
vn -0.9918 -0.1277 -0.0000
vn -0.0000 -0.4160 0.9094
vn 0.0000 1.0000 0.0000
vn -0.0000 -1.0000 -0.0000
vn 0.9906 -0.1368 -0.0000
vn -0.5559 -0.3439 -0.7568
vn -0.9712 -0.2381 -0.0000
vn -0.5559 -0.3439 0.7568
vn -0.0363 0.9993 0.0000
vn -0.0363 -0.9993 -0.0000
vn -0.9746 0.0473 -0.2191
vn 0.9746 0.0473 -0.2191
vn -0.0000 0.2587 0.9660
vn -0.0000 -0.2587 0.9660
vn 0.0000 0.0000 1.0000
vn 0.9746 -0.0473 -0.2191
vn 0.9789 0.0000 -0.2042
vn -0.9746 -0.0473 -0.2191
vn -0.9789 -0.0000 -0.2042
vn 0.0000 -0.2555 -0.9668
vn 0.0000 0.2555 -0.9668
vn -0.5376 0.0473 -0.8419
vn 0.8462 0.0473 0.5308
vn -0.6803 0.2587 0.6858
vn -0.6803 -0.2587 0.6858
vn -0.7043 0.0000 0.7099
vn 0.8462 -0.0473 0.5308
vn 0.8388 0.0000 0.5444
vn -0.5376 -0.0473 -0.8419
vn -0.5512 0.0000 -0.8344
vn 0.6809 -0.2555 -0.6864
vn 0.6809 0.2555 -0.6864
vn 0.2113 0.0473 -0.9763
vn 0.2270 0.0473 0.9728
vn -0.9659 0.2587 0.0078
vn -0.9659 -0.2587 0.0078
vn -1.0000 0.0000 0.0080
vn 0.2270 -0.0473 0.9728
vn 0.2121 -0.0000 0.9773
vn 0.2113 -0.0473 -0.9763
vn 0.1963 0.0000 -0.9805
vn 0.9668 -0.2555 -0.0078
vn 0.9668 0.2555 -0.0078
vn 0.8375 0.0473 -0.5443
vn -0.5239 0.0473 0.8504
vn -0.6912 0.2587 -0.6747
vn -0.6912 -0.2587 -0.6747
vn -0.7156 0.0000 -0.6985
vn -0.5239 -0.0473 0.8504
vn -0.5377 -0.0000 0.8432
vn 0.8375 -0.0473 -0.5443
vn 0.8299 0.0000 -0.5579
vn 0.6918 -0.2555 0.6753
vn 0.6918 0.2555 0.6753
vn 0.9780 0.0473 0.2034
vn -0.9709 0.0473 0.2348
vn -0.0155 0.2587 -0.9658
vn -0.0155 -0.2587 -0.9658
vn -0.0161 -0.0000 -0.9999
vn -0.9709 -0.0473 0.2348
vn -0.9755 -0.0000 0.2199
vn 0.9780 -0.0473 0.2034
vn 0.9821 0.0000 0.1884
vn 0.0156 -0.2555 0.9667
vn 0.0156 0.2555 0.9667
vn 0.5510 0.0473 0.8331
vn -0.8546 0.0473 -0.5171
vn 0.6692 0.2587 -0.6966
vn 0.6692 -0.2587 -0.6966
vn 0.6927 -0.0000 -0.7212
vn -0.8546 -0.0473 -0.5171
vn -0.8475 -0.0000 -0.5309
vn 0.5510 -0.0473 0.8331
vn 0.5645 -0.0000 0.8254
vn -0.6697 -0.2555 0.6972
vn -0.6697 0.2555 0.6972
vn -0.1955 0.0473 0.9796
vn -0.2426 0.0473 -0.9690
vn 0.9657 0.2587 -0.0233
vn 0.9657 -0.2587 -0.0233
vn 0.9997 0.0000 -0.0241
vn -0.2426 -0.0473 -0.9690
vn -0.2278 0.0000 -0.9737
vn -0.1955 -0.0473 0.9796
vn -0.1805 0.0000 0.9836
vn -0.9665 -0.2555 0.0233
vn -0.9665 0.2555 0.0233
vn -0.8287 0.0473 0.5577
vn 0.5102 0.0473 -0.8588
vn 0.7020 0.2587 0.6635
vn 0.7020 -0.2587 0.6635
vn 0.7267 0.0000 0.6869
vn 0.5102 -0.0473 -0.8588
vn 0.5240 0.0000 -0.8517
vn -0.8287 -0.0473 0.5577
vn -0.8208 0.0000 0.5712
vn -0.7026 -0.2555 -0.6641
vn -0.7026 0.2555 -0.6641
vn -0.9543 0.2500 0.1639
vn -0.6716 0.3600 -0.6476
vn 0.9753 0.1440 -0.1675
vn -0.4171 0.3600 0.8346
vn -0.0358 -0.9993 0.0061
vn -0.0358 0.9993 0.0061
vn -0.9775 0.1277 0.1679
vn -0.1539 0.4160 -0.8962
vn 0.9775 0.1277 -0.1679
vn 0.1539 0.4160 0.8962
vn -0.9763 0.1368 0.1677
vn 0.4198 0.3439 -0.8400
vn 0.9572 0.2381 -0.1644
vn 0.6760 0.3439 0.6518
vn 0.0358 -0.9993 -0.0061
vn 0.0358 0.9993 -0.0061
vn 0.7113 0.0000 -0.7029
vn 1.0000 -0.0000 0.0060
vn 0.7029 -0.0000 0.7113
vn -0.0060 -0.0000 1.0000
vn -0.7113 0.0000 0.7029
vn -1.0000 0.0000 -0.0060
vn -0.7029 0.0000 -0.7113
vn 0.0060 0.0000 -1.0000
usemtl Material.002
s off
f 1/1/1 2/2/1 4/3/1 3/4/1
f 3/4/2 4/3/2 8/5/2 7/6/2
f 7/6/3 8/5/3 6/7/3 5/8/3
f 5/8/4 6/7/4 2/9/4 1/10/4
f 3/11/5 7/6/5 5/8/5 1/12/5
f 8/5/6 4/13/6 2/14/6 6/7/6
f 9/15/7 10/16/7 12/17/7 11/18/7
f 11/18/8 12/17/8 16/19/8 15/20/8
f 15/20/9 16/19/9 14/21/9 13/22/9
f 13/22/10 14/21/10 10/23/10 9/24/10
f 11/25/11 15/20/11 13/22/11 9/26/11
f 16/19/12 12/27/12 10/28/12 14/21/12
f 17/29/13 18/30/13 20/31/13 19/32/13
f 19/32/14 20/31/14 24/33/14 23/34/14
f 23/34/15 24/33/15 22/35/15 21/36/15
f 21/36/16 22/35/16 18/37/16 17/38/16
f 19/39/17 23/34/17 21/36/17 17/40/17
f 24/33/18 20/41/18 18/42/18 22/35/18
f 34/43/19 26/44/19 28/45/19 35/46/19
f 37/47/20 32/48/20 30/49/20 39/50/20
f 39/50/21 30/49/21 26/51/21 34/52/21
f 27/53/12 31/54/12 29/55/12 25/56/12
f 32/48/11 28/57/11 26/58/11 30/49/11
f 29/55/22 40/59/22 33/60/22 25/61/22
f 40/59/23 39/50/23 34/52/23 33/60/23
f 31/54/24 38/62/24 40/59/24 29/55/24
f 38/62/25 37/47/25 39/50/25 40/59/25
f 25/63/26 33/64/26 36/65/26 27/66/26
f 33/64/27 34/43/27 35/46/27 36/65/27
f 32/48/28 37/47/28 35/46/28 28/45/28
f 27/53/29 36/65/29 38/62/29 31/54/29
f 50/67/30 42/68/30 44/69/30 51/70/30
f 53/71/31 48/72/31 46/73/31 55/74/31
f 55/74/32 46/73/32 42/75/32 50/76/32
f 43/77/12 47/78/12 45/79/12 41/80/12
f 48/72/11 44/81/11 42/82/11 46/73/11
f 45/79/33 56/83/33 49/84/33 41/85/33
f 56/83/34 55/74/34 50/76/34 49/84/34
f 47/78/35 54/86/35 56/83/35 45/79/35
f 54/86/36 53/71/36 55/74/36 56/83/36
f 41/87/37 49/88/37 52/89/37 43/90/37
f 49/88/38 50/67/38 51/70/38 52/89/38
f 48/72/39 53/71/39 51/70/39 44/69/39
f 43/77/40 52/89/40 54/86/40 47/78/40
f 66/91/41 58/92/41 60/93/41 67/94/41
f 69/95/42 64/96/42 62/97/42 71/98/42
f 71/98/43 62/97/43 58/99/43 66/100/43
f 59/101/12 63/102/12 61/103/12 57/104/12
f 64/96/11 60/105/11 58/106/11 62/97/11
f 61/103/44 72/107/44 65/108/44 57/109/44
f 72/107/45 71/98/45 66/100/45 65/108/45
f 63/102/46 70/110/46 72/107/46 61/103/46
f 70/110/47 69/95/47 71/98/47 72/107/47
f 57/111/48 65/112/48 68/113/48 59/114/48
f 65/112/49 66/91/49 67/94/49 68/113/49
f 64/96/50 69/95/50 67/94/50 60/93/50
f 59/101/51 68/113/51 70/110/51 63/102/51
f 82/115/52 74/116/52 76/117/52 83/118/52
f 85/119/53 80/120/53 78/121/53 87/122/53
f 87/122/54 78/121/54 74/123/54 82/124/54
f 75/125/12 79/126/12 77/127/12 73/128/12
f 80/120/11 76/129/11 74/130/11 78/121/11
f 77/127/55 88/131/55 81/132/55 73/133/55
f 88/131/56 87/122/56 82/124/56 81/132/56
f 79/126/57 86/134/57 88/131/57 77/127/57
f 86/134/58 85/119/58 87/122/58 88/131/58
f 73/135/59 81/136/59 84/137/59 75/138/59
f 81/136/60 82/115/60 83/118/60 84/137/60
f 80/120/61 85/119/61 83/118/61 76/117/61
f 75/125/62 84/137/62 86/134/62 79/126/62
f 98/139/63 90/140/63 92/141/63 99/142/63
f 101/143/64 96/144/64 94/145/64 103/146/64
f 103/146/65 94/145/65 90/147/65 98/148/65
f 91/149/12 95/150/12 93/151/12 89/152/12
f 96/144/11 92/153/11 90/154/11 94/145/11
f 93/151/66 104/155/66 97/156/66 89/157/66
f 104/155/67 103/146/67 98/148/67 97/156/67
f 95/150/68 102/158/68 104/155/68 93/151/68
f 102/158/69 101/143/69 103/146/69 104/155/69
f 89/159/70 97/160/70 100/161/70 91/162/70
f 97/160/71 98/139/71 99/142/71 100/161/71
f 96/144/72 101/143/72 99/142/72 92/141/72
f 91/149/73 100/161/73 102/158/73 95/150/73
f 114/163/74 106/164/74 108/165/74 115/166/74
f 117/167/75 112/168/75 110/169/75 119/170/75
f 119/170/76 110/169/76 106/171/76 114/172/76
f 107/173/12 111/174/12 109/175/12 105/176/12
f 112/168/11 108/177/11 106/178/11 110/169/11
f 109/175/77 120/179/77 113/180/77 105/181/77
f 120/179/78 119/170/78 114/172/78 113/180/78
f 111/174/79 118/182/79 120/179/79 109/175/79
f 118/182/80 117/167/80 119/170/80 120/179/80
f 105/183/81 113/184/81 116/185/81 107/186/81
f 113/184/82 114/163/82 115/166/82 116/185/82
f 112/168/83 117/167/83 115/166/83 108/165/83
f 107/173/84 116/185/84 118/182/84 111/174/84
f 130/187/85 122/188/85 124/189/85 131/190/85
f 133/191/86 128/192/86 126/193/86 135/194/86
f 135/194/87 126/193/87 122/195/87 130/196/87
f 123/197/12 127/198/12 125/199/12 121/200/12
f 128/192/11 124/201/11 122/202/11 126/193/11
f 125/199/88 136/203/88 129/204/88 121/205/88
f 136/203/89 135/194/89 130/196/89 129/204/89
f 127/198/90 134/206/90 136/203/90 125/199/90
f 134/206/91 133/191/91 135/194/91 136/203/91
f 121/207/92 129/208/92 132/209/92 123/210/92
f 129/208/93 130/187/93 131/190/93 132/209/93
f 128/192/94 133/191/94 131/190/94 124/189/94
f 123/197/95 132/209/95 134/206/95 127/198/95
f 146/211/96 138/212/96 140/213/96 147/214/96
f 149/215/97 144/216/97 142/217/97 151/218/97
f 151/218/98 142/217/98 138/219/98 146/220/98
f 139/221/12 143/222/12 141/223/12 137/224/12
f 144/216/11 140/225/11 138/226/11 142/217/11
f 141/223/99 152/227/99 145/228/99 137/229/99
f 152/227/100 151/218/100 146/220/100 145/228/100
f 143/222/101 150/230/101 152/227/101 141/223/101
f 150/230/102 149/215/102 151/218/102 152/227/102
f 137/231/103 145/232/103 148/233/103 139/234/103
f 145/232/104 146/211/104 147/214/104 148/233/104
f 144/216/105 149/215/105 147/214/105 140/213/105
f 139/221/106 148/233/106 150/230/106 143/222/106
f 153/235/107 154/236/107 156/237/107 155/238/107
f 155/238/108 156/237/108 160/239/108 159/240/108
f 159/240/109 160/239/109 158/241/109 157/242/109
f 157/242/110 158/241/110 154/243/110 153/244/110
f 155/245/111 159/240/111 157/242/111 153/246/111
f 160/239/112 156/247/112 154/248/112 158/241/112
f 161/249/113 162/250/113 164/251/113 163/252/113
f 163/252/114 164/251/114 168/253/114 167/254/114
f 167/254/115 168/253/115 166/255/115 165/256/115
f 165/256/116 166/255/116 162/257/116 161/258/116
f 163/259/12 167/254/12 165/256/12 161/260/12
f 168/253/11 164/261/11 162/262/11 166/255/11
f 169/263/117 170/264/117 172/265/117 171/266/117
f 171/266/118 172/265/118 176/267/118 175/268/118
f 175/268/119 176/267/119 174/269/119 173/270/119
f 173/270/120 174/269/120 170/271/120 169/272/120
f 171/273/121 175/268/121 173/270/121 169/274/121
f 176/267/122 172/275/122 170/276/122 174/269/122
usemtl Material.006
f 177/277/123 178/278/123 180/279/123 179/280/123
f 179/280/124 180/279/124 182/281/124 181/282/124
f 181/282/125 182/281/125 184/283/125 183/284/125
f 183/284/126 184/283/126 186/285/126 185/286/126
f 185/286/127 186/285/127 188/287/127 187/288/127
f 187/288/128 188/287/128 190/289/128 189/290/128
f 180/291/11 178/292/11 192/293/11 190/294/11 188/295/11 186/296/11 184/297/11 182/298/11
f 189/290/129 190/289/129 192/299/129 191/300/129
f 191/300/130 192/299/130 178/301/130 177/302/130
f 177/303/12 179/304/12 181/305/12 183/306/12 185/307/12 187/308/12 189/309/12 191/310/12
f 193/311/123 194/312/123 196/313/123 195/314/123
f 195/314/124 196/313/124 198/315/124 197/316/124
f 197/316/125 198/315/125 200/317/125 199/318/125
f 199/318/126 200/317/126 202/319/126 201/320/126
f 201/320/127 202/319/127 204/321/127 203/322/127
f 203/322/128 204/321/128 206/323/128 205/324/128
f 196/325/11 194/326/11 208/327/11 206/328/11 204/329/11 202/330/11 200/331/11 198/332/11
f 205/324/129 206/323/129 208/333/129 207/334/129
f 207/334/130 208/333/130 194/335/130 193/336/130
f 193/337/12 195/338/12 197/339/12 199/340/12 201/341/12 203/342/12 205/343/12 207/344/12
