# Blender v3.1.2 OBJ File: 'asset.blend'
# www.blender.org
mtllib bush1.mtl
o bush_1_Cube.020
v -1.818891 0.800709 -0.290913
v -1.642448 0.738566 0.061467
v -1.764115 1.175904 -0.391002
v -1.493571 1.415820 -0.110132
v -1.560240 1.123723 0.005523
v -1.410293 1.416915 0.073977
v -1.563727 1.083750 -1.169613
v -1.432137 0.518740 -1.110600
v -1.507368 0.868833 -1.077743
v -1.798983 1.155999 -0.957043
v -1.591027 1.329069 -0.679068
v -1.576474 1.318466 -1.142694
v -1.545309 0.750643 -0.816539
v -1.301516 1.541457 -0.398194
v -0.877872 1.405466 0.056258
v -1.027899 1.219934 0.028416
v -0.913083 1.175924 -1.292329
v -1.101089 0.794515 -1.285508
v -1.203067 1.504696 -1.164384
v -1.088186 1.593451 -0.810043
v -1.000076 1.528550 -1.056886
v -1.187118 1.589661 -0.343322
v -0.961738 2.110434 -0.639293
v -0.927874 2.037767 -0.391164
v -0.764348 2.183932 -0.278935
v -0.608990 1.898401 -0.147429
v -1.015724 1.555431 -0.204933
v -0.957008 1.831310 -0.181224
v -0.780968 1.568951 -0.099424
v -0.817299 0.675422 -1.853687
v -0.914751 1.549215 -1.575705
v -0.762306 1.213221 -1.729068
v -0.836915 1.669609 -1.350578
v -0.755842 1.898935 -1.322417
v -0.952460 1.351466 -1.190881
v -0.883773 1.928121 -0.491590
v -0.893260 1.872328 -0.844146
v -0.829561 2.191087 -1.061413
v -0.848147 2.105250 -1.219900
v -0.656537 2.283948 -0.361767
v -1.627786 0.573977 -0.019823
v -1.287667 0.562745 0.120295
v -1.604007 0.502094 -0.799550
v -1.498101 0.511780 -0.356861
v -1.284555 0.357811 -0.622303
v -0.901820 0.425753 -0.101071
v -0.817767 0.491062 0.123528
v -1.059617 0.732589 0.226561
v -0.855761 0.738110 0.318634
v -1.166140 0.488133 -1.099097
v -1.129707 0.347571 -0.795600
v -0.942888 0.385172 -0.443576
v -0.747365 0.253710 -0.113200
v -0.703839 0.472200 0.028033
v -0.451896 0.359608 0.075135
v -0.872289 0.989608 0.182295
v -0.605341 0.890414 0.241009
v -0.487780 0.770352 0.158916
v -0.943843 0.451741 -1.491960
v -0.594588 0.328054 -1.344845
v -0.503358 0.217012 -0.626254
v 0.091273 0.431546 0.116404
v -0.777375 1.758631 0.163960
v -0.776677 1.745276 -0.058463
v -0.520204 1.893761 0.355997
v -0.460569 1.932676 0.036101
v -0.675848 1.556848 0.190038
v -0.498283 1.549830 0.478903
v -0.361541 2.251198 -0.183196
v -0.091055 2.036120 0.030753
v -0.246316 1.964191 0.179435
v -0.122219 1.683732 0.494715
v 0.148911 1.415174 0.539432
v -0.720309 1.199064 0.609327
v -0.478068 1.166925 0.713902
v -0.461874 1.369805 0.667424
v -0.004257 1.015251 0.638542
v 0.082602 0.713935 0.157061
v 0.000741 0.804056 0.307676
v -0.704935 0.458119 -1.814690
v -0.337769 0.746150 -1.991320
v -0.623518 1.571591 -1.627362
v -0.472835 1.646449 -1.504157
v -0.343233 1.912433 -1.445399
v -0.559933 2.128870 -1.253537
v -0.414735 2.253241 -1.033703
v -0.188853 1.262247 -1.888498
v -0.110986 1.709592 -1.433437
v -0.127181 1.577662 -1.487342
v 0.200809 1.894068 -1.360996
v 0.136781 1.667299 -1.226549
v 0.261444 2.231380 -0.754473
v 0.315883 2.069928 -1.078890
v 0.352682 1.876550 -0.521618
v 0.355917 1.723878 -1.033157
v 0.344046 1.782122 -0.838603
v 0.488737 1.604591 -0.563754
v 0.117302 0.990978 -1.879088
v 0.739433 1.444430 -1.450497
v 0.569252 1.240670 -1.766431
v 0.777570 1.160877 -1.411219
v 0.748876 1.238655 -0.594364
v 0.651550 1.712761 -0.918596
v -0.304141 0.378581 -1.543218
v -0.022371 0.169689 -1.190528
v -0.018075 0.133052 -0.299680
v 0.512062 0.314562 -0.881262
v 0.292650 0.379874 -0.057113
v 0.248791 0.662013 -1.483762
v 0.303357 0.373225 -1.572721
v 0.658035 0.763869 -0.551694
v 0.653986 0.285779 -0.379505
v 0.624321 0.832974 -1.374023
v 0.654136 0.389997 -1.257093
v 0.764974 0.800443 -0.924116
v -0.136536 2.323752 -0.718319
v 0.043006 2.077773 -0.221124
v 0.119380 2.099744 0.180575
v 0.328714 1.695451 0.459906
v 0.056338 1.766438 0.327986
v 0.409415 1.668845 0.198626
v 0.450974 1.911870 -0.256148
v 0.629370 1.513000 -0.122862
v 0.541724 1.373382 -0.361307
v 0.508408 0.813122 -0.149560
v 0.566171 1.101643 0.198425
v 0.589804 1.670503 0.458868
v 0.712060 1.287379 -0.330899
v 0.406584 1.104092 0.257212
v 0.855409 1.059664 0.037532
v 0.677601 1.208705 0.054755
v 0.776182 1.536688 0.101839
vn -0.6611 0.0500 -0.7486
vn -0.9731 0.2272 -0.0386
vn -0.8635 -0.1401 -0.4846
vn -0.6501 0.7597 0.0133
vn -0.6094 0.7920 -0.0372
vn -0.4476 0.8935 -0.0345
vn -0.7437 -0.5804 -0.3318
vn -0.4898 0.8597 -0.1452
vn -0.8551 0.3475 0.3847
vn -0.3628 0.9183 0.1586
vn -0.0009 -0.2269 0.9739
vn 0.0291 -0.1713 0.9848
vn -0.1115 -0.4152 -0.9029
vn 0.0177 0.9685 -0.2483
vn -0.4104 0.0090 0.9119
vn -0.9535 -0.1380 -0.2680
vn -0.1886 0.9594 0.2096
vn -0.3085 0.7455 0.5908
vn 0.2347 0.5253 -0.8179
vn 0.3065 0.6254 -0.7176
vn -0.9154 0.3874 0.1093
vn -0.8893 0.0988 -0.4466
vn -0.9062 -0.2583 -0.3349
vn -0.1444 0.8925 -0.4274
vn -0.9811 0.1932 -0.0042
vn -0.9797 0.2002 0.0065
vn -0.9205 -0.2729 -0.2797
vn -0.7721 0.4902 -0.4045
vn -0.5002 0.8658 0.0088
vn -0.6731 -0.6822 -0.2854
vn -0.6781 -0.7238 -0.1274
vn -0.9457 0.2384 0.2210
vn -0.3001 -0.9292 -0.2155
vn -0.3440 -0.9055 0.2484
vn -0.3755 -0.8428 0.3856
vn -0.2676 -0.2266 0.9365
vn -0.3086 0.3754 0.8740
vn -0.4314 -0.8373 -0.3360
vn 0.0334 -0.9955 0.0886
vn -0.2594 -0.9361 0.2376
vn -0.7279 -0.6652 0.1661
vn -0.3845 -0.4037 0.8302
vn -0.3994 -0.9082 -0.1250
vn -0.0167 0.4757 0.8795
vn 0.5150 -0.4811 0.7094
vn 0.5515 -0.0337 -0.8335
vn -0.2477 -0.9463 -0.2077
vn -0.1652 -0.9862 -0.0080
vn 0.0934 -0.9215 0.3769
vn 0.2375 -0.6849 0.6888
vn -0.5935 0.0471 0.8034
vn -0.6077 -0.1656 0.7767
vn -0.1960 0.6442 0.7393
vn -0.9997 0.0254 -0.0047
vn -0.8675 -0.3979 0.2984
vn -0.8043 -0.3418 0.4861
vn -0.1545 0.3237 0.9334
vn 0.1131 0.9936 -0.0047
vn -0.5513 0.7783 0.3005
vn -0.8523 -0.2811 0.4412
vn -0.3958 -0.7609 0.5141
vn -0.1802 -0.8272 0.5322
vn -0.3359 -0.7709 0.5412
vn -0.5516 0.6625 0.5068
vn -0.7914 0.3585 0.4952
vn 0.0881 0.7288 0.6790
vn 0.1903 0.1669 0.9674
vn -0.1737 -0.8838 0.4344
vn -0.1764 -0.8309 0.5277
vn -0.3433 0.3590 -0.8679
vn -0.1258 0.8784 -0.4610
vn -0.1412 0.9853 -0.0959
vn 0.6358 0.4118 -0.6529
vn 0.0828 0.1763 -0.9808
vn 0.1815 0.7593 -0.6249
vn 0.1292 0.7271 -0.6743
vn 0.6471 0.2189 -0.7303
vn 0.4814 -0.5436 -0.6876
vn 0.3175 0.7507 -0.5793
vn 0.1443 0.8953 -0.4214
vn 0.9633 0.2667 0.0289
vn 0.9927 0.1182 0.0252
vn 0.9854 0.1450 0.0897
vn 0.8663 0.0476 -0.4973
vn 0.9129 0.0521 -0.4049
vn 0.1426 0.9506 -0.2759
vn 0.9775 0.2104 0.0143
vn 0.2758 -0.7329 -0.6219
vn -0.1216 -0.9865 -0.1095
vn -0.1365 -0.8937 -0.4274
vn -0.0914 -0.8445 -0.5277
vn -0.2348 -0.9647 -0.1193
vn -0.1442 -0.9887 -0.0400
vn 0.2833 -0.9582 -0.0408
vn -0.1462 -0.9816 0.1226
vn 0.6238 -0.1468 0.7677
vn 0.4163 -0.6874 -0.5951
vn -0.0440 0.2865 -0.9571
vn 0.4780 -0.5904 -0.6503
vn -0.0219 -0.9607 -0.2768
vn 0.6289 -0.5936 -0.5022
vn 0.2762 -0.9259 -0.2577
vn 0.6654 -0.1483 -0.7316
vn 0.9313 0.2402 -0.2738
vn 0.8750 -0.4371 0.2083
vn 0.9540 -0.0148 -0.2993
vn 0.2418 0.9016 0.3587
vn 0.4001 0.8706 0.2863
vn -0.3464 0.9338 0.0900
vn 0.4459 0.8851 -0.1332
vn 0.0119 0.8906 0.4546
vn 0.7687 0.5323 0.3547
vn 0.0946 0.9929 -0.0719
vn 0.2483 0.9439 -0.2175
vn 0.7504 0.4866 0.4475
vn 0.8681 0.4623 -0.1809
vn 0.8890 0.2754 -0.3658
vn 0.8165 0.4749 0.3284
vn 0.5742 -0.5264 0.6271
vn 0.5307 -0.6208 0.5770
vn 0.4494 0.6890 -0.5686
vn 0.6401 0.7396 0.2081
vn 0.1138 -0.9027 0.4150
vn 0.2841 0.9371 -0.2029
vn 0.7887 -0.3130 0.5291
vn 0.9563 -0.2912 0.0260
vn 0.6042 0.6485 -0.4631
vn 0.4778 0.4854 0.7322
vn -0.9858 0.1586 0.0551
vn -0.8478 0.2487 0.4684
vn -0.8476 0.2490 0.4686
vn -0.8066 0.3674 0.4631
vn -0.6382 -0.5763 -0.5104
vn -0.8878 -0.3570 -0.2905
vn -0.6632 0.7485 -0.0005
vn -0.5746 0.8180 -0.0263
vn -0.1982 0.1010 -0.9749
vn -0.4574 -0.0148 -0.8891
vn -0.4191 0.1907 -0.8877
vn -0.1681 0.2252 -0.9597
vn -0.4775 0.8762 -0.0647
vn -0.3593 0.9307 -0.0686
vn -0.8216 0.5660 -0.0675
vn -0.7394 0.6121 0.2802
vn -0.5275 0.3965 0.7514
vn -0.6191 0.0645 0.7827
vn -0.7360 0.6759 0.0372
vn -0.7687 0.6198 -0.1579
vn -0.2026 0.7121 0.6722
vn 0.0349 0.8745 0.4837
vn -0.8983 -0.0730 -0.4334
vn -0.8599 0.1970 -0.4708
vn -0.8672 0.4227 -0.2633
vn -0.9788 -0.1266 -0.1609
vn -0.9054 0.3497 -0.2407
vn -0.8598 0.4338 -0.2693
vn -0.9233 -0.3838 0.0136
vn -0.5981 0.7837 0.1678
vn -0.7317 -0.5898 -0.3418
vn -0.8788 -0.2719 0.3921
vn -0.3546 -0.4393 0.8254
vn -0.0927 -0.9849 0.1461
vn -0.4675 -0.8742 0.1310
vn 0.0192 -0.9931 0.1154
vn -0.2655 0.1938 0.9444
vn -0.1083 0.3805 0.9184
vn -0.3829 0.4207 0.8225
vn -0.1473 -0.9536 0.2626
vn -0.0754 -0.4542 0.8877
vn -0.3096 -0.6182 0.7225
vn -0.0224 -0.5162 -0.8562
vn -0.0974 -0.9536 -0.2848
vn 0.0574 -0.9642 0.2589
vn 0.4047 -0.2120 0.8896
vn 0.3658 -0.5834 0.7251
vn -0.3835 -0.2166 0.8978
vn -0.7084 -0.4621 -0.5335
vn -0.6056 -0.7473 -0.2734
vn -0.8508 -0.2585 -0.4575
vn -0.1686 -0.9771 -0.1296
vn -0.0167 -0.2012 0.9794
vn -0.0560 -0.1440 0.9880
vn -0.0133 -0.8625 0.5059
vn -0.4757 0.8794 0.0183
vn -0.4973 0.8659 -0.0536
vn -0.7062 0.4951 0.5062
vn -0.6870 0.6715 0.2776
vn -0.6547 0.2170 0.7241
vn -0.2666 0.7688 0.5813
vn -0.7608 -0.1202 0.6377
vn -0.2784 0.6019 0.7485
vn -0.1544 0.5924 0.7907
vn -0.1984 0.9767 0.0818
vn -0.2625 0.9472 0.1841
vn -0.0740 0.0906 0.9931
vn 0.1942 0.7697 0.6082
vn 0.2069 0.7700 0.6035
vn -0.1601 0.4244 0.8912
vn -0.7226 0.5618 0.4028
vn -0.3587 0.2356 0.9033
vn 0.2165 0.2016 0.9553
vn -0.0568 -0.6008 0.7973
vn -0.2256 -0.2839 -0.9319
vn -0.3022 0.2694 -0.9144
vn -0.1895 0.3353 -0.9229
vn -0.2791 0.2438 -0.9288
vn -0.2854 0.2156 -0.9339
vn -0.1151 0.9051 -0.4092
vn 0.1504 0.7525 -0.6412
vn -0.1382 0.3904 -0.9102
vn -0.1047 0.8936 -0.4364
vn -0.2653 0.4771 -0.8379
vn -0.2783 0.3605 -0.8903
vn 0.1611 0.1479 -0.9758
vn 0.3275 0.3226 -0.8880
vn 0.1562 0.1210 -0.9803
vn 0.6372 -0.5181 -0.5705
vn 0.1631 0.8785 -0.4489
vn 0.1678 0.8044 -0.5699
vn 0.9972 0.0600 -0.0450
vn 0.2996 0.8655 0.4013
vn 0.7671 0.5131 0.3852
vn 0.1226 0.7709 -0.6250
vn 0.1613 0.1482 -0.9757
vn 0.4854 -0.5858 -0.6490
vn 0.1471 0.7933 -0.5908
vn 0.2289 0.8289 -0.5104
vn 0.1552 0.8921 -0.4244
vn 0.7325 0.4803 0.4825
vn 0.2072 -0.9716 -0.1143
vn 0.1316 0.3145 -0.9401
vn 0.3019 -0.9503 -0.0766
vn 0.9357 0.1125 0.3344
vn 0.9550 -0.1076 -0.2763
vn 0.6350 -0.1547 0.7569
vn 0.3843 -0.2794 -0.8799
vn 0.9067 -0.4157 0.0714
vn 0.8692 -0.4311 0.2421
vn 0.6886 -0.7138 0.1276
vn -0.2658 0.9639 0.0189
vn 0.3965 0.8481 0.3513
vn -0.2914 0.9566 0.0031
vn 0.2603 0.9654 -0.0179
vn 0.4009 0.3060 0.8635
vn 0.8724 0.4614 -0.1612
vn 0.9475 -0.0581 -0.3143
vn 0.5963 -0.0964 0.7969
vn 0.6876 -0.0846 0.7211
vn 0.0689 0.2312 0.9705
vn 0.0283 0.2560 0.9663
vn 0.3921 -0.4185 0.8192
vn 0.2683 0.6611 0.7007
vn 0.5665 -0.6907 0.4494
vn 0.4625 0.8812 -0.0983
vn 0.8351 0.5499 0.0150
vn 0.9129 -0.1875 0.3626
vn 0.1930 -0.8073 0.5577
vn 0.6408 -0.4330 0.6340
vn 0.2628 0.9265 -0.2694
vn 0.9829 0.1325 -0.1282
usemtl Material.001
s off
f 10//1 12//1 7//1
f 13//2 9//2 43//2
f 8//3 43//3 9//3
f 3//4 11//4 10//4
f 11//5 12//5 10//5
f 19//6 12//6 11//6
f 10//7 13//7 1//7
f 14//8 20//8 11//8
f 6//9 4//9 5//9
f 6//10 14//10 4//10
f 6//11 5//11 16//11
f 6//12 16//12 15//12
f 9//13 7//13 17//13
f 20//14 21//14 19//14
f 29//15 28//15 27//15
f 24//16 36//16 28//16
f 6//17 27//17 14//17
f 29//18 27//18 15//18
f 35//19 17//19 19//19
f 35//20 19//20 21//20
f 33//21 31//21 35//21
f 35//22 21//22 33//22
f 17//23 31//23 32//23
f 33//24 82//24 31//24
f 37//25 36//25 38//25
f 38//26 39//26 37//26
f 37//27 39//27 34//27
f 37//28 21//28 20//28
f 40//29 38//29 23//29
f 1//30 13//30 44//30
f 41//31 1//31 44//31
f 44//32 13//32 43//32
f 43//33 8//33 45//33
f 42//34 44//34 45//34
f 45//35 46//35 47//35
f 48//36 2//36 42//36
f 56//37 16//37 48//37
f 51//38 45//38 50//38
f 45//39 51//39 52//39
f 52//40 51//40 61//40
f 46//41 52//41 53//41
f 46//42 53//42 55//42
f 53//43 52//43 61//43
f 57//44 56//44 49//44
f 47//45 54//45 49//45
f 46//46 58//46 54//46
f 51//47 59//47 60//47
f 53//48 61//48 106//48
f 62//49 55//49 112//49
f 55//50 106//50 112//50
f 25//51 24//51 26//51
f 29//52 64//52 28//52
f 26//53 28//53 64//53
f 63//54 64//54 29//54
f 63//55 29//55 67//55
f 68//56 63//56 67//56
f 72//57 65//57 68//57
f 86//58 40//58 69//58
f 66//59 26//59 64//59
f 74//60 16//60 56//60
f 74//61 56//61 57//61
f 75//62 57//62 77//62
f 74//63 57//63 75//63
f 67//64 74//64 76//64
f 68//65 67//65 76//65
f 73//66 68//66 76//66
f 77//67 73//67 76//67
f 57//68 78//68 79//68
f 57//69 79//69 77//69
f 33//70 84//70 83//70
f 85//71 39//71 38//71
f 40//72 86//72 38//72
f 85//73 86//73 116//73
f 83//74 84//74 89//74
f 89//75 87//75 83//75
f 85//76 90//76 84//76
f 91//77 89//77 88//77
f 91//78 88//78 90//78
f 95//79 89//79 91//79
f 92//80 93//80 85//80
f 94//81 93//81 92//81
f 96//82 95//82 93//82
f 101//83 99//83 103//83
f 101//84 100//84 99//84
f 93//85 95//85 90//85
f 103//86 95//86 96//86
f 102//87 101//87 103//87
f 104//88 80//88 81//88
f 59//89 80//89 104//89
f 60//90 59//90 104//90
f 110//91 105//91 60//91
f 61//92 60//92 105//92
f 106//93 61//93 105//93
f 106//94 105//94 107//94
f 62//95 112//95 108//95
f 108//96 125//96 62//96
f 109//97 104//97 81//97
f 110//98 104//98 109//98
f 98//99 109//99 81//99
f 110//100 60//100 104//100
f 109//101 100//101 101//101
f 105//102 110//102 114//102
f 113//103 114//103 110//103
f 115//104 113//104 102//104
f 107//105 115//105 111//105
f 114//106 113//106 115//106
f 117//107 92//107 116//107
f 117//108 116//108 69//108
f 118//109 70//109 71//109
f 118//110 94//110 117//110
f 72//111 119//111 120//111
f 118//112 121//112 122//112
f 127//113 121//113 119//113
f 122//114 94//114 118//114
f 92//115 117//115 94//115
f 94//116 123//116 97//116
f 123//117 94//117 122//117
f 123//118 122//118 121//118
f 79//119 78//119 125//119
f 129//120 79//120 125//120
f 124//121 123//121 128//121
f 131//122 130//122 128//122
f 129//123 111//123 130//123
f 127//124 132//124 121//124
f 132//125 127//125 131//125
f 132//126 131//126 128//126
f 132//127 128//127 123//127
f 126//128 130//128 131//128
f 1//129 3//129 10//129
f 2//130 3//130 1//130
f 2//131 5//131 3//131
f 5//132 4//132 3//132
f 7//133 13//133 10//133
f 13//134 7//134 9//134
f 4//135 11//135 3//135
f 4//136 14//136 11//136
f 7//137 12//137 17//137
f 8//138 9//138 18//138
f 18//139 9//139 17//139
f 12//140 19//140 17//140
f 20//141 19//141 11//141
f 22//142 20//142 14//142
f 20//143 36//143 37//143
f 24//144 25//144 23//144
f 14//145 27//145 22//145
f 27//146 28//146 22//146
f 28//147 36//147 22//147
f 22//148 36//148 20//148
f 26//149 24//149 28//149
f 15//150 27//150 6//150
f 18//151 30//151 50//151
f 30//152 18//152 32//152
f 17//153 32//153 18//153
f 17//154 35//154 31//154
f 37//155 34//155 33//155
f 37//156 33//156 21//156
f 36//157 24//157 23//157
f 25//158 40//158 23//158
f 36//159 23//159 38//159
f 41//160 2//160 1//160
f 42//161 2//161 41//161
f 42//162 41//162 44//162
f 45//163 44//163 43//163
f 45//164 52//164 46//164
f 5//165 2//165 48//165
f 48//166 16//166 5//166
f 49//167 56//167 48//167
f 47//168 42//168 45//168
f 48//169 42//169 47//169
f 48//170 47//170 49//170
f 50//171 8//171 18//171
f 45//172 8//172 50//172
f 54//173 47//173 46//173
f 49//174 58//174 57//174
f 58//175 49//175 54//175
f 58//176 46//176 55//176
f 80//177 59//177 30//177
f 51//178 50//178 59//178
f 59//179 50//179 30//179
f 60//180 61//180 51//180
f 55//181 78//181 58//181
f 78//182 55//182 62//182
f 55//183 53//183 106//183
f 65//184 66//184 63//184
f 63//185 66//185 64//185
f 67//186 15//186 16//186
f 67//187 29//187 15//187
f 68//188 65//188 63//188
f 69//189 40//189 25//189
f 66//190 25//190 26//190
f 66//191 69//191 25//191
f 70//192 69//192 66//192
f 65//193 71//193 66//193
f 71//194 70//194 66//194
f 73//195 72//195 68//195
f 72//196 71//196 65//196
f 72//197 120//197 71//197
f 120//198 118//198 71//198
f 74//199 67//199 16//199
f 75//200 76//200 74//200
f 75//201 77//201 76//201
f 78//202 57//202 58//202
f 80//203 30//203 81//203
f 87//204 81//204 30//204
f 82//205 32//205 31//205
f 32//206 87//206 30//206
f 33//207 34//207 84//207
f 33//208 83//208 82//208
f 83//209 87//209 82//209
f 34//210 39//210 85//210
f 38//211 86//211 85//211
f 84//212 34//212 85//212
f 32//213 82//213 87//213
f 87//214 98//214 81//214
f 89//215 84//215 88//215
f 84//216 90//216 88//216
f 95//217 91//217 90//217
f 92//218 85//218 116//218
f 93//219 90//219 85//219
f 94//220 96//220 93//220
f 96//221 97//221 103//221
f 124//222 102//222 97//222
f 89//223 100//223 87//223
f 98//224 87//224 100//224
f 100//225 109//225 98//225
f 89//226 99//226 100//226
f 103//227 89//227 95//227
f 103//228 99//228 89//228
f 97//229 102//229 103//229
f 112//230 106//230 107//230
f 110//231 109//231 113//231
f 107//232 105//232 114//232
f 125//233 112//233 111//233
f 111//234 112//234 107//234
f 108//235 112//235 125//235
f 101//236 113//236 109//236
f 113//237 101//237 102//237
f 114//238 115//238 107//238
f 115//239 130//239 111//239
f 69//240 116//240 86//240
f 70//241 117//241 69//241
f 70//242 118//242 117//242
f 120//243 119//243 121//243
f 120//244 121//244 118//244
f 94//245 97//245 96//245
f 97//246 123//246 124//246
f 78//247 62//247 125//247
f 129//248 73//248 77//248
f 73//249 119//249 72//249
f 73//250 127//250 119//250
f 129//251 127//251 73//251
f 129//252 126//252 131//252
f 129//253 77//253 79//253
f 124//254 128//254 102//254
f 128//255 130//255 102//255
f 129//256 125//256 111//256
f 130//257 126//257 129//257
f 131//258 127//258 129//258
f 123//259 121//259 132//259
f 102//260 130//260 115//260
