# Blender v3.1.2 OBJ File: 'asset.blend'
# www.blender.org
mtllib pinetree2.mtl
o tree_2_Cone.005
v 0.094017 5.650404 -0.454894
v 0.399003 5.665846 -0.346638
v 0.520890 5.659489 -0.062803
v 0.400373 5.646335 0.221383
v 0.095910 5.623450 0.329793
v -0.207385 5.589825 0.220908
v -0.327820 5.580575 -0.063466
v -0.208755 5.609336 -0.347113
v -0.042217 7.111876 -0.011555
v 0.186701 4.657201 -0.885136
v 0.834221 4.611155 -0.710612
v 1.054539 4.560082 -0.101855
v 0.837166 4.569226 0.510027
v 0.190502 4.603082 0.690418
v -0.438554 4.450610 0.509030
v -0.649566 4.401635 -0.103186
v -0.441499 4.492538 -0.711609
v 0.443876 4.673811 -0.428713
v 0.709844 4.640032 -0.118972
v 0.664079 4.630663 0.265983
v 0.354546 4.667494 0.497990
v -0.045329 4.711505 0.422334
v -0.312127 4.712931 0.111137
v -0.269505 4.694132 -0.273334
v -0.133987 4.723976 -0.619412
v 0.073203 5.824066 -0.022610
v 0.645109 3.567588 -0.934112
v 1.179847 3.386626 -0.254010
v 1.069138 3.541592 0.532680
v 0.465224 3.416759 1.048835
v -0.404485 3.751008 0.893282
v -0.978917 3.525218 0.261712
v -0.842053 3.435430 -0.537203
v -0.332678 3.399503 -1.205370
v -0.556878 3.986453 0.098970
v -0.477317 3.954524 -0.440861
v -0.044401 3.913581 -0.732596
v 0.467923 3.913033 -0.624311
v 0.745678 3.929278 -0.153826
v 0.661824 3.914464 0.387015
v 0.229632 3.915097 0.679039
v -0.278726 3.955749 0.569555
v 0.242018 5.193809 0.187009
v -1.262073 2.780463 0.253775
v -1.180874 2.597775 -0.864325
v -0.240797 2.466238 -1.417193
v 0.845209 2.508841 -1.257542
v 1.353117 2.665670 -0.253774
v 1.256224 2.490799 0.864326
v 0.308236 2.442138 1.417194
v -0.769859 2.579734 1.257543
v -0.461633 2.854928 -0.769023
v 0.332812 2.870145 -0.981338
v 0.983114 2.878789 -0.530669
v 1.137136 2.867240 0.244679
v 0.624908 2.851360 0.888262
v -0.170300 2.856877 1.100531
v -0.819633 2.863781 0.651170
v -0.972713 2.859776 -0.124177
v 0.117056 5.468673 0.086481
v -0.758862 1.308229 -1.214178
v 0.423756 1.649220 -1.521799
v 1.360142 1.613502 -0.810325
v 1.638874 1.624274 0.334497
v 0.849176 1.092023 1.235394
v -0.308030 1.627189 1.612628
v -1.270341 1.305193 0.873013
v -1.589534 1.678868 -0.148956
v 0.095013 -0.088406 -0.573469
v 0.095012 3.180060 -0.102346
v 0.661221 -0.088406 -0.246569
v 0.253216 3.180060 -0.011007
v 0.661221 -0.088406 0.407232
v 0.253216 3.180060 0.171671
v 0.095012 -0.088406 0.734133
v 0.095012 3.180060 0.263010
v -0.471196 -0.088406 0.407232
v -0.063191 3.180060 0.171671
v -0.471196 -0.088406 -0.246569
v -0.063191 3.180060 -0.011007
vt 0.250000 0.490000
vt 0.250000 0.250000
vt 0.419706 0.419706
vt 0.490000 0.250000
vt 0.419706 0.080294
vt 0.250000 0.010000
vt 0.080294 0.080294
vt 0.010000 0.250000
vt 0.250000 0.010000
vt 0.419706 0.080294
vt 0.080294 0.419706
vt 0.490000 0.250000
vt 0.419706 0.419706
vt 0.250000 0.490000
vt 0.080294 0.419706
vt 0.010000 0.250000
vt 0.080294 0.080294
vt 0.250000 0.490000
vt 0.250000 0.250000
vt 0.419706 0.419706
vt 0.490000 0.250000
vt 0.419706 0.080294
vt 0.250000 0.010000
vt 0.080294 0.080294
vt 0.010000 0.250000
vt 0.250000 0.010000
vt 0.419706 0.080294
vt 0.080294 0.419706
vt 0.490000 0.250000
vt 0.419706 0.419706
vt 0.250000 0.490000
vt 0.080294 0.419706
vt 0.010000 0.250000
vt 0.080294 0.080294
vt 0.250000 0.490000
vt 0.250000 0.250000
vt 0.419706 0.419706
vt 0.490000 0.250000
vt 0.419706 0.080294
vt 0.250000 0.010000
vt 0.080294 0.080294
vt 0.010000 0.250000
vt 0.250000 0.010000
vt 0.419706 0.080294
vt 0.080294 0.419706
vt 0.490000 0.250000
vt 0.419706 0.419706
vt 0.250000 0.490000
vt 0.080294 0.419706
vt 0.010000 0.250000
vt 0.080294 0.080294
vt 0.250000 0.490000
vt 0.250000 0.250000
vt 0.419706 0.419706
vt 0.490000 0.250000
vt 0.419706 0.080294
vt 0.250000 0.010000
vt 0.080294 0.080294
vt 0.010000 0.250000
vt 0.250000 0.010000
vt 0.419706 0.080294
vt 0.080294 0.419706
vt 0.490000 0.250000
vt 0.419706 0.419706
vt 0.250000 0.490000
vt 0.080294 0.419706
vt 0.010000 0.250000
vt 0.080294 0.080294
vt 1.000000 0.500000
vt 1.000000 1.000000
vt 0.833333 1.000000
vt 0.833333 0.500000
vt 0.666667 1.000000
vt 0.666667 0.500000
vt 0.500000 1.000000
vt 0.500000 0.500000
vt 0.333333 1.000000
vt 0.333333 0.500000
vt 0.457846 0.370000
vt 0.250000 0.490000
vt 0.042154 0.370000
vt 0.042154 0.130000
vt 0.250000 0.010000
vt 0.457846 0.130000
vt 0.166667 1.000000
vt 0.166667 0.500000
vt -0.000000 1.000000
vt -0.000000 0.500000
vt 0.750000 0.490000
vt 0.957846 0.370000
vt 0.957846 0.130000
vt 0.750000 0.010000
vt 0.542154 0.130000
vt 0.542154 0.370000
vn 0.3052 0.3024 -0.9030
vn 0.8643 0.3479 -0.3633
vn 0.8661 0.3223 0.3822
vn 0.3096 0.2398 0.9201
vn -0.3499 0.1784 0.9196
vn -0.9112 0.1570 0.3808
vn 0.2761 0.3474 0.8962
vn -0.9130 0.1827 -0.3647
vn -0.3543 0.2411 -0.9035
vn 0.8502 0.4161 0.3225
vn 0.8487 0.4374 -0.2973
vn -0.3411 0.3511 -0.8720
vn -0.9144 0.2734 -0.2986
vn -0.9129 0.2521 0.3211
vn 0.2719 0.4081 -0.8715
vn -0.3368 0.2904 0.8957
vn 0.7086 0.4267 -0.5619
vn 0.8787 0.4631 0.1157
vn 0.5696 0.4486 0.6887
vn -0.1314 0.3801 0.9155
vn -0.7177 0.3231 0.6168
vn -0.9424 0.3124 -0.1197
vn -0.0389 0.4228 0.9054
vn -0.8856 0.3390 -0.3175
vn 0.3180 0.4051 -0.8572
vn 0.5638 0.3804 0.7331
vn 0.9322 0.3528 0.0807
vn 0.2332 0.3985 -0.8870
vn -0.7745 0.3940 -0.4948
vn -0.8752 0.4514 -0.1742
vn 0.7615 0.3625 -0.5374
vn -0.7063 0.4862 0.5145
vn -0.8189 0.5530 -0.1534
vn -0.4118 0.5906 -0.6940
vn 0.1734 0.5487 -0.8178
vn 0.7696 0.4330 -0.4693
vn 0.9315 0.3297 0.1535
vn 0.5346 0.2990 0.7905
vn 0.7812 0.4162 -0.4652
vn -0.1696 0.3553 0.9192
vn -0.7501 0.4618 0.4735
vn 0.1390 0.4227 -0.8955
vn -0.4271 0.4475 -0.7857
vn -0.7372 0.4925 0.4625
vn -0.0987 0.4568 0.8841
vn 0.4598 0.4323 0.7757
vn -0.8603 0.4883 -0.1466
vn 0.8953 0.4209 0.1457
vn -0.2481 0.3505 -0.9031
vn 0.5282 0.3599 -0.7691
vn 0.9198 0.3499 -0.1775
vn 0.7361 0.3248 0.5939
vn 0.2458 0.3272 0.9124
vn -0.5290 0.3571 0.7699
vn 0.6889 0.2648 0.6747
vn -0.9130 0.3670 0.1784
vn -0.7320 0.3528 -0.5828
vn 0.9184 0.3374 -0.2068
vn 0.5568 0.3529 -0.7520
vn -0.7011 0.3427 -0.6253
vn -0.8794 0.3647 0.3061
vn -0.6022 0.3197 0.7316
vn -0.2960 0.3400 -0.8926
vn 0.3458 0.2685 0.8991
vn 0.4961 0.1239 -0.8594
vn 0.9923 0.1239 -0.0000
vn 0.4961 0.1239 0.8594
vn -0.4961 0.1239 0.8594
vn -0.0000 1.0000 0.0000
vn -0.9923 0.1239 0.0000
vn -0.4961 0.1239 -0.8594
vn 0.0000 -1.0000 -0.0000
usemtl Material.005
s off
f 1/1/1 9/2/1 2/3/1
f 2/3/2 9/2/2 3/4/2
f 3/4/3 9/2/3 4/5/3
f 4/5/4 9/2/4 5/6/4
f 5/6/5 9/2/5 6/7/5
f 6/7/6 9/2/6 7/8/6
f 4/5/7 5/6/7 14/9/7 13/10/7
f 7/8/8 9/2/8 8/11/8
f 8/11/9 9/2/9 1/1/9
f 3/4/10 4/5/10 13/10/10 12/12/10
f 2/3/11 3/4/11 12/12/11 11/13/11
f 8/11/12 1/1/12 10/14/12 17/15/12
f 7/8/13 8/11/13 17/15/13 16/16/13
f 6/7/14 7/8/14 16/16/14 15/17/14
f 1/1/15 2/3/15 11/13/15 10/14/15
f 5/6/16 6/7/16 15/17/16 14/9/16
f 18/18/17 26/19/17 19/20/17
f 19/20/18 26/19/18 20/21/18
f 20/21/19 26/19/19 21/22/19
f 21/22/20 26/19/20 22/23/20
f 22/23/21 26/19/21 23/24/21
f 23/24/22 26/19/22 24/25/22
f 21/22/23 22/23/23 31/26/23 30/27/23
f 24/25/24 26/19/24 25/28/24
f 25/28/25 26/19/25 18/18/25
f 20/21/26 21/22/26 30/27/26 29/29/26
f 19/20/27 20/21/27 29/29/27 28/30/27
f 25/28/28 18/18/28 27/31/28 34/32/28
f 24/25/29 25/28/29 34/32/29 33/33/29
f 23/24/30 24/25/30 33/33/30 32/34/30
f 18/18/31 19/20/31 28/30/31 27/31/31
f 22/23/32 23/24/32 32/34/32 31/26/32
f 35/35/33 43/36/33 36/37/33
f 36/37/34 43/36/34 37/38/34
f 37/38/35 43/36/35 38/39/35
f 38/39/36 43/36/36 39/40/36
f 39/40/37 43/36/37 40/41/37
f 40/41/38 43/36/38 41/42/38
f 38/39/39 39/40/39 48/43/39 47/44/39
f 41/42/40 43/36/40 42/45/40
f 42/45/41 43/36/41 35/35/41
f 37/38/42 38/39/42 47/44/42 46/46/42
f 36/37/43 37/38/43 46/46/43 45/47/43
f 42/45/44 35/35/44 44/48/44 51/49/44
f 41/42/45 42/45/45 51/49/45 50/50/45
f 40/41/46 41/42/46 50/50/46 49/51/46
f 35/35/47 36/37/47 45/47/47 44/48/47
f 39/40/48 40/41/48 49/51/48 48/43/48
f 52/52/49 60/53/49 53/54/49
f 53/54/50 60/53/50 54/55/50
f 54/55/51 60/53/51 55/56/51
f 55/56/52 60/53/52 56/57/52
f 56/57/53 60/53/53 57/58/53
f 57/58/54 60/53/54 58/59/54
f 55/56/55 56/57/55 65/60/55 64/61/55
f 58/59/56 60/53/56 59/62/56
f 59/62/57 60/53/57 52/52/57
f 54/55/58 55/56/58 64/61/58 63/63/58
f 53/54/59 54/55/59 63/63/59 62/64/59
f 59/62/60 52/52/60 61/65/60 68/66/60
f 58/59/61 59/62/61 68/66/61 67/67/61
f 57/58/62 58/59/62 67/67/62 66/68/62
f 52/52/63 53/54/63 62/64/63 61/65/63
f 56/57/64 57/58/64 66/68/64 65/60/64
usemtl Material.002
f 69/69/65 70/70/65 72/71/65 71/72/65
f 71/72/66 72/71/66 74/73/66 73/74/66
f 73/74/67 74/73/67 76/75/67 75/76/67
f 75/76/68 76/75/68 78/77/68 77/78/68
f 72/79/69 70/80/69 80/81/69 78/82/69 76/83/69 74/84/69
f 77/78/70 78/77/70 80/85/70 79/86/70
f 79/86/71 80/85/71 70/87/71 69/88/71
f 69/89/72 71/90/72 73/91/72 75/92/72 77/93/72 79/94/72
