# Blender v3.1.2 OBJ File: 'asset.blend'
# www.blender.org
mtllib pinetree1.mtl
o tree_1_Cone.009
v 0.072353 6.494358 0.306747
v -0.184816 6.476472 0.109820
v -0.213260 6.476361 -0.197983
v -0.012224 6.504506 -0.431101
v 0.310779 6.533085 -0.440504
v 0.569105 6.529678 -0.244312
v 0.598544 6.511512 0.062861
v 0.396513 6.501644 0.296610
v 0.097641 8.240963 -0.007330
v 0.016313 5.295842 0.642667
v -0.533568 5.161944 0.273627
v -0.549816 5.124615 -0.375425
v -0.162679 5.222188 -0.888777
v 0.495043 5.373603 -0.857720
v 1.057566 5.275025 -0.496695
v 1.080185 5.195195 0.148318
v 0.686677 5.214782 0.665709
v 0.138194 5.522452 -0.430712
v 0.545269 5.474511 -0.440379
v 0.813383 5.451204 -0.160913
v 0.797480 5.485393 0.226064
v 0.486662 5.537249 0.487891
v 0.076706 5.547472 0.496990
v -0.194100 5.537876 0.220015
v -0.374374 5.584277 -0.104065
v 0.260305 6.850299 0.123810
v -0.166626 4.248324 -0.916708
v 0.691851 4.018191 -0.900764
v 1.235462 4.173680 -0.314818
v 1.246044 4.008826 0.478726
v 0.586041 4.399703 1.055998
v -0.275588 4.153406 1.097958
v -0.809558 4.074494 0.484595
v -1.003794 4.056081 -0.333619
v -0.502659 4.736947 0.099015
v -0.423249 4.700228 -0.440835
v 0.009665 4.655585 -0.732603
v 0.522311 4.658722 -0.624347
v 0.800339 4.679751 -0.153868
v 0.716288 4.661827 0.386992
v 0.283801 4.659379 0.679050
v -0.224582 4.703126 0.569594
v 0.305656 6.153442 0.187010
v -1.217217 3.322738 0.253864
v -1.137245 3.109892 -0.864270
v -0.197491 2.963143 -1.417210
v 0.889526 3.020927 -1.257620
v 1.398861 3.207906 -0.253858
v 1.300546 3.002886 0.864275
v 0.351549 2.939043 1.417215
v -0.726224 3.091850 1.257626
v -0.392427 3.416546 -0.768434
v 0.402049 3.435073 -0.980714
v 1.052385 3.446719 -0.530003
v 1.206412 3.434588 0.245355
v 0.694168 3.416308 0.888923
v -0.101043 3.422017 1.101189
v -0.750388 3.428548 0.651809
v -0.903494 3.422499 -0.123572
v 0.189774 6.473860 0.091033
v -0.691731 1.607514 -1.215930
v 0.491356 2.007218 -1.523023
v 1.427728 1.967781 -0.811558
v 1.706506 1.982462 0.333323
v 0.916105 1.360603 1.233431
v -0.240400 1.985195 1.611453
v -1.203176 1.606416 0.871309
v -1.521900 2.041254 -0.150138
v 0.163689 -0.088404 -0.573466
v 0.163689 3.180061 -0.102343
v 0.729898 -0.088405 -0.246566
v 0.321893 3.180062 -0.011004
v 0.729898 -0.088405 0.407236
v 0.321893 3.180062 0.171674
v 0.163689 -0.088405 0.734136
v 0.163689 3.180061 0.263013
v -0.402519 -0.088404 0.407236
v 0.005486 3.180062 0.171674
v -0.402519 -0.088404 -0.246566
v 0.005486 3.180062 -0.011004
vt 0.250000 0.490000
vt 0.250000 0.250000
vt 0.419706 0.419706
vt 0.490000 0.250000
vt 0.419706 0.080294
vt 0.250000 0.010000
vt 0.080294 0.080294
vt 0.010000 0.250000
vt 0.250000 0.010000
vt 0.419706 0.080294
vt 0.080294 0.419706
vt 0.490000 0.250000
vt 0.419706 0.419706
vt 0.250000 0.490000
vt 0.080294 0.419706
vt 0.010000 0.250000
vt 0.080294 0.080294
vt 0.250000 0.490000
vt 0.250000 0.250000
vt 0.419706 0.419706
vt 0.490000 0.250000
vt 0.419706 0.080294
vt 0.250000 0.010000
vt 0.080294 0.080294
vt 0.010000 0.250000
vt 0.250000 0.010000
vt 0.419706 0.080294
vt 0.080294 0.419706
vt 0.490000 0.250000
vt 0.419706 0.419706
vt 0.250000 0.490000
vt 0.080294 0.419706
vt 0.010000 0.250000
vt 0.080294 0.080294
vt 0.250000 0.490000
vt 0.250000 0.250000
vt 0.419706 0.419706
vt 0.490000 0.250000
vt 0.419706 0.080294
vt 0.250000 0.010000
vt 0.080294 0.080294
vt 0.010000 0.250000
vt 0.250000 0.010000
vt 0.419706 0.080294
vt 0.080294 0.419706
vt 0.490000 0.250000
vt 0.419706 0.419706
vt 0.250000 0.490000
vt 0.080294 0.419706
vt 0.010000 0.250000
vt 0.080294 0.080294
vt 0.250000 0.490000
vt 0.250000 0.250000
vt 0.419706 0.419706
vt 0.490000 0.250000
vt 0.419706 0.080294
vt 0.250000 0.010000
vt 0.080294 0.080294
vt 0.010000 0.250000
vt 0.250000 0.010000
vt 0.419706 0.080294
vt 0.080294 0.419706
vt 0.490000 0.250000
vt 0.419706 0.419706
vt 0.250000 0.490000
vt 0.080294 0.419706
vt 0.010000 0.250000
vt 0.080294 0.080294
vt 1.000000 0.500000
vt 1.000000 1.000000
vt 0.833333 1.000000
vt 0.833333 0.500000
vt 0.666667 1.000000
vt 0.666667 0.500000
vt 0.500000 1.000000
vt 0.500000 0.500000
vt 0.333333 1.000000
vt 0.333333 0.500000
vt 0.457846 0.370000
vt 0.250000 0.490000
vt 0.042154 0.370000
vt 0.042154 0.130000
vt 0.250000 0.010000
vt 0.457846 0.130000
vt 0.166667 1.000000
vt 0.166667 0.500000
vt -0.000000 1.000000
vt -0.000000 0.500000
vt 0.750000 0.490000
vt 0.957846 0.370000
vt 0.957846 0.130000
vt 0.750000 0.010000
vt 0.542154 0.130000
vt 0.542154 0.370000
vn -0.6077 0.1491 0.7801
vn -0.9824 0.1633 0.0907
vn -0.7538 0.2004 -0.6258
vn -0.0494 0.2397 -0.9696
vn 0.5851 0.2672 -0.7657
vn 0.9586 0.2746 -0.0756
vn -0.0410 0.3365 -0.9408
vn 0.7300 0.2374 0.6409
vn 0.0268 0.1765 0.9839
vn -0.7765 0.2797 -0.5647
vn -0.9680 0.2486 0.0355
vn 0.0078 0.2736 0.9618
vn 0.7437 0.3227 0.5855
vn 0.9352 0.3538 -0.0147
vn -0.5871 0.2478 0.7707
vn 0.5539 0.3623 -0.7496
vn 0.0232 0.3834 -0.9233
vn 0.6793 0.3945 -0.6188
vn 0.9304 0.3666 0.0058
vn 0.6427 0.3056 0.7025
vn 0.0281 0.2716 0.9620
vn -0.6898 0.2875 0.6645
vn 0.6989 0.3435 0.6274
vn -0.8090 0.3164 0.4953
vn -0.4649 0.3772 -0.8010
vn 0.9524 0.3024 0.0378
vn 0.6747 0.2926 -0.6776
vn -0.5431 0.3731 -0.7522
vn -0.8802 0.3697 0.2976
vn -0.6955 0.4135 0.5876
vn 0.0756 0.3226 -0.9435
vn -0.0421 0.4223 0.9055
vn -0.8532 0.4967 -0.1593
vn -0.4348 0.5320 -0.7266
vn 0.1773 0.4892 -0.8539
vn 0.7899 0.3770 -0.4836
vn 0.9467 0.2816 0.1564
vn 0.5400 0.2561 0.8018
vn 0.8003 0.3614 -0.4784
vn -0.1745 0.3103 0.9345
vn -0.7719 0.4103 0.4856
vn 0.1397 0.3702 -0.9184
vn -0.4407 0.3956 -0.8058
vn -0.7619 0.4390 0.4763
vn -0.1043 0.4028 0.9093
vn 0.4699 0.3776 0.7979
vn -0.8875 0.4355 -0.1509
vn 0.9188 0.3652 0.1501
vn -0.2524 0.3061 -0.9179
vn 0.5371 0.3137 -0.7830
vn 0.9354 0.3037 -0.1811
vn 0.7471 0.2805 0.6026
vn 0.2493 0.2828 0.9262
vn -0.5388 0.3105 0.7831
vn 0.6958 0.2272 0.6814
vn -0.9298 0.3204 0.1811
vn -0.7442 0.3083 -0.5926
vn 0.9328 0.2925 -0.2106
vn 0.5658 0.3073 -0.7651
vn -0.7120 0.2992 -0.6352
vn -0.8955 0.3182 0.3111
vn -0.6111 0.2771 0.7415
vn -0.3008 0.2967 -0.9064
vn 0.3492 0.2305 0.9083
vn 0.4961 0.1239 -0.8594
vn 0.9923 0.1239 0.0000
vn 0.4961 0.1239 0.8594
vn -0.4961 0.1239 0.8594
vn 0.0000 1.0000 -0.0000
vn -0.9923 0.1239 0.0000
vn -0.4961 0.1239 -0.8594
vn -0.0000 -1.0000 -0.0000
usemtl Material.005
s off
f 1/1/1 9/2/1 2/3/1
f 2/3/2 9/2/2 3/4/2
f 3/4/3 9/2/3 4/5/3
f 4/5/4 9/2/4 5/6/4
f 5/6/5 9/2/5 6/7/5
f 6/7/6 9/2/6 7/8/6
f 4/5/7 5/6/7 14/9/7 13/10/7
f 7/8/8 9/2/8 8/11/8
f 8/11/9 9/2/9 1/1/9
f 3/4/10 4/5/10 13/10/10 12/12/10
f 2/3/11 3/4/11 12/12/11 11/13/11
f 8/11/12 1/1/12 10/14/12 17/15/12
f 7/8/13 8/11/13 17/15/13 16/16/13
f 6/7/14 7/8/14 16/16/14 15/17/14
f 1/1/15 2/3/15 11/13/15 10/14/15
f 5/6/16 6/7/16 15/17/16 14/9/16
f 18/18/17 26/19/17 19/20/17
f 19/20/18 26/19/18 20/21/18
f 20/21/19 26/19/19 21/22/19
f 21/22/20 26/19/20 22/23/20
f 22/23/21 26/19/21 23/24/21
f 23/24/22 26/19/22 24/25/22
f 21/22/23 22/23/23 31/26/23 30/27/23
f 24/25/24 26/19/24 25/28/24
f 25/28/25 26/19/25 18/18/25
f 20/21/26 21/22/26 30/27/26 29/29/26
f 19/20/27 20/21/27 29/29/27 28/30/27
f 25/28/28 18/18/28 27/31/28 34/32/28
f 24/25/29 25/28/29 34/32/29 33/33/29
f 23/24/30 24/25/30 33/33/30 32/34/30
f 18/18/31 19/20/31 28/30/31 27/31/31
f 22/23/32 23/24/32 32/34/32 31/26/32
f 35/35/33 43/36/33 36/37/33
f 36/37/34 43/36/34 37/38/34
f 37/38/35 43/36/35 38/39/35
f 38/39/36 43/36/36 39/40/36
f 39/40/37 43/36/37 40/41/37
f 40/41/38 43/36/38 41/42/38
f 38/39/39 39/40/39 48/43/39 47/44/39
f 41/42/40 43/36/40 42/45/40
f 42/45/41 43/36/41 35/35/41
f 37/38/42 38/39/42 47/44/42 46/46/42
f 36/37/43 37/38/43 46/46/43 45/47/43
f 42/45/44 35/35/44 44/48/44 51/49/44
f 41/42/45 42/45/45 51/49/45 50/50/45
f 40/41/46 41/42/46 50/50/46 49/51/46
f 35/35/47 36/37/47 45/47/47 44/48/47
f 39/40/48 40/41/48 49/51/48 48/43/48
f 52/52/49 60/53/49 53/54/49
f 53/54/50 60/53/50 54/55/50
f 54/55/51 60/53/51 55/56/51
f 55/56/52 60/53/52 56/57/52
f 56/57/53 60/53/53 57/58/53
f 57/58/54 60/53/54 58/59/54
f 55/56/55 56/57/55 65/60/55 64/61/55
f 58/59/56 60/53/56 59/62/56
f 59/62/57 60/53/57 52/52/57
f 54/55/58 55/56/58 64/61/58 63/63/58
f 53/54/59 54/55/59 63/63/59 62/64/59
f 59/62/60 52/52/60 61/65/60 68/66/60
f 58/59/61 59/62/61 68/66/61 67/67/61
f 57/58/62 58/59/62 67/67/62 66/68/62
f 52/52/63 53/54/63 62/64/63 61/65/63
f 56/57/64 57/58/64 66/68/64 65/60/64
usemtl Material.002
f 69/69/65 70/70/65 72/71/65 71/72/65
f 71/72/66 72/71/66 74/73/66 73/74/66
f 73/74/67 74/73/67 76/75/67 75/76/67
f 75/76/68 76/75/68 78/77/68 77/78/68
f 72/79/69 70/80/69 80/81/69 78/82/69 76/83/69 74/84/69
f 77/78/70 78/77/70 80/85/70 79/86/70
f 79/86/71 80/85/71 70/87/71 69/88/71
f 69/89/72 71/90/72 73/91/72 75/92/72 77/93/72 79/94/72
